<?xml version="1.0" encoding="UTF-8"?>
<svg version="1.1" xmlns="http://www.w3.org/2000/svg" width="370" height="306">
<path d="M0 0 C122.1 0 244.2 0 370 0 C370 100.98 370 201.96 370 306 C247.9 306 125.8 306 0 306 C0 205.02 0 104.04 0 0 Z " fill="#FEFEFE" transform="translate(0,0)"/>
<path d="M0 0 C0 0.66 0 1.32 0 2 C1.65 2.33 3.3 2.66 5 3 C5 2.01 5 1.02 5 0 C5.66 0 6.32 0 7 0 C7 0.66 7 1.32 7 2 C8.32 2 9.64 2 11 2 C11.99 3.485 11.99 3.485 13 5 C13.99 5 14.98 5 16 5 C16 4.34 16 3.68 16 3 C14.68 2.67 13.36 2.34 12 2 C14.475 1.505 14.475 1.505 17 1 C17.99 2.485 17.99 2.485 19 4 C21.84569108 5.42079493 21.84569108 5.42079493 25 6 C26.34882408 5.36525925 27.6846659 4.70151152 29 4 C31.25 4.875 31.25 4.875 33 6 C33 6.66 33 7.32 33 8 C35.64 8.33 38.28 8.66 41 9 C40.67 9.99 40.34 10.98 40 12 C40.86625 11.773125 41.7325 11.54625 42.625 11.3125 C46.78828716 10.92701045 48.56833174 11.66022618 52 14 C53.61751685 16.74274596 54.13542412 18.16488462 53.625 21.3125 C53.41875 21.869375 53.2125 22.42625 53 23 C54.65 23 56.3 23 58 23 C58.33 22.34 58.66 21.68 59 21 C57.02 21.495 57.02 21.495 55 22 C55.33 21.01 55.66 20.02 56 19 C57.32 19 58.64 19 60 19 C60.2475 19.804375 60.495 20.60875 60.75 21.4375 C61.72238859 24.171081 61.72238859 24.171081 64.125 24.8125 C64.74375 24.874375 65.3625 24.93625 66 25 C65.67 25.66 65.34 26.32 65 27 C64.34 27 63.68 27 63 27 C63 27.66 63 28.32 63 29 C65.16874252 28.49396008 66.99967627 28.00016187 69 27 C69.33 27.99 69.66 28.98 70 30 C70.99 30.4640625 70.99 30.4640625 72 30.9375 C74 32 74 32 74.75 34.125 C74.8325 34.74375 74.915 35.3625 75 36 C75.598125 36.061875 76.19625 36.12375 76.8125 36.1875 C80.04206937 37.38705434 80.57204358 38.88445873 82 42 C82.80288903 44.97717236 83.43864245 47.96866924 84 51 C84.95132813 51.18369141 84.95132813 51.18369141 85.921875 51.37109375 C88 52 88 52 89.25 54.0625 C89.4975 54.701875 89.745 55.34125 90 56 C89.01 56.99 89.01 56.99 88 58 C88.78375 58.2475 89.5675 58.495 90.375 58.75 C93 60 93 60 94.3125 61.875 C95 64 95 64 95 68 C92.03 68.495 92.03 68.495 89 69 C88.67 68.34 88.34 67.68 88 67 C87.67 67.99 87.34 68.98 87 70 C88.0725 69.9175 89.145 69.835 90.25 69.75 C94 70 94 70 96.5 71.75 C98 74 98 74 97.75 76.25 C97.37875 77.11625 97.37875 77.11625 97 78 C97.99 78.33 98.98 78.66 100 79 C100 80.98 100 82.96 100 85 C99.34 85 98.68 85 98 85 C97.67 84.01 97.34 83.02 97 82 C97.33 83.65 97.66 85.3 98 87 C98.99 87 99.98 87 101 87 C101 88.32 101 89.64 101 91 C99.68 91 98.36 91 97 91 C97 91.66 97 92.32 97 93 C97.99 92.67 98.98 92.34 100 92 C100.66 92.33 101.32 92.66 102 93 C102 93.66 102 94.32 102 95 C101.01 95 100.02 95 99 95 C99.515625 95.391875 100.03125 95.78375 100.5625 96.1875 C101.036875 96.785625 101.51125 97.38375 102 98 C101.625 100.5625 101.625 100.5625 101 103 C101.33 103.66 101.66 104.32 102 105 C101.01 105.495 101.01 105.495 100 106 C99.67 106.99 99.34 107.98 99 109 C99.99 109.33 100.98 109.66 102 110 C99.525 114.455 99.525 114.455 97 119 C98.32 118.67 99.64 118.34 101 118 C100.67 119.98 100.34 121.96 100 124 C99.34 124 98.68 124 98 124 C98.185625 124.969375 98.37125 125.93875 98.5625 126.9375 C98.7790625 128.4534375 98.7790625 128.4534375 99 130 C98 131 98 131 95.4375 131.0625 C94.633125 131.041875 93.82875 131.02125 93 131 C94.32 131.66 95.64 132.32 97 133 C96.67 134.98 96.34 136.96 96 139 C95.34 139 94.68 139 94 139 C94 138.01 94 137.02 94 136 C93.05675742 140.31196609 92.51958285 144.62065881 92 149 C91.01 149 90.02 149 89 149 C89.33 150.32 89.66 151.64 90 153 C89.01 153.66 88.02 154.32 87 155 C85.86649466 157.01669827 85.86649466 157.01669827 85 159 C84.67 159.33 84.34 159.66 84 160 C83.731875 160.639375 83.46375 161.27875 83.1875 161.9375 C82 164 82 164 80.0625 164.8125 C76.84171472 166.66689152 76.32044265 169.63887326 75 173 C74.34 173.66 73.68 174.32 73 175 C72.01 175 71.02 175 70 175 C69.71125 175.804375 69.4225 176.60875 69.125 177.4375 C68 180 68 180 66 181 C65.67 180.01 65.34 179.02 65 178 C64.67 179.32 64.34 180.64 64 182 C63.34 182 62.68 182 62 182 C62 182.99 62 183.98 62 185 C60.68 184.67 59.36 184.34 58 184 C58 184.99 58 185.98 58 187 C57.01 186.67 56.02 186.34 55 186 C55.33 185.34 55.66 184.68 56 184 C55.01 184 54.02 184 53 184 C53 185.32 53 186.64 53 188 C53.99 188.33 54.98 188.66 56 189 C55 190 55 190 52.125 190.125 C49 190 49 190 46 189 C46 189.66 46 190.32 46 191 C47.32 191 48.64 191 50 191 C50 191.66 50 192.32 50 193 C45.56923077 195.09230769 45.56923077 195.09230769 42.6875 194.625 C42.130625 194.41875 41.57375 194.2125 41 194 C40.814375 194.639375 40.62875 195.27875 40.4375 195.9375 C39 198 39 198 35.375 198.75 C34.26125 198.8325 33.1475 198.915 32 199 C32 199.66 32 200.32 32 201 C31.154375 201.19335938 30.30875 201.38671875 29.4375 201.5859375 C21.88857991 203.31391963 21.88857991 203.31391963 14.375 205.1875 C11 206 11 206 8 206 C8 204.68 8 203.36 8 202 C7.34 203.32 6.68 204.64 6 206 C4.35 205.34 2.7 204.68 1 204 C1 204.66 1 205.32 1 206 C-6.45746657 206.1355903 -13.70574226 205.64709046 -21 204 C-20.67 203.01 -20.34 202.02 -20 201 C-20.99 201 -21.98 201 -23 201 C-22.67 201.99 -22.34 202.98 -22 204 C-25.3 203.34 -28.6 202.68 -32 202 C-32.33 201.01 -32.66 200.02 -33 199 C-33.53625 199.226875 -34.0725 199.45375 -34.625 199.6875 C-38.13395665 200.14920482 -40.05667636 198.83140138 -43 197 C-43.33 196.01 -43.66 195.02 -44 194 C-45.65 194.33 -47.3 194.66 -49 195 C-49 193.68 -49 192.36 -49 191 C-50.0209375 191.433125 -50.0209375 191.433125 -51.0625 191.875 C-54.58719601 192.02498706 -55.01498144 191.45501113 -57.5625 189.1875 C-58.12066406 188.64480469 -58.67882812 188.10210937 -59.25390625 187.54296875 C-61.06712149 185.94068683 -62.80104627 184.98640156 -65 184 C-65 183.01 -65 182.02 -65 181 C-67.97 180.01 -67.97 180.01 -71 179 C-71 178.34 -71 177.68 -71 177 C-71.66 177 -72.32 177 -73 177 C-73 176.01 -73 175.02 -73 174 C-73.99 173.67 -74.98 173.34 -76 173 C-75.67 171.68 -75.34 170.36 -75 169 C-75.66 169 -76.32 169 -77 169 C-77.33 170.32 -77.66 171.64 -78 173 C-81 168.375 -81 168.375 -81 165 C-81.99 165 -82.98 165 -84 165 C-84 164.01 -84 163.02 -84 162 C-85.65788785 160.65576661 -87.32576317 159.32381517 -89 158 C-91.50797651 154.54072205 -92 153.38746624 -92 149 C-91.34 148.67 -90.68 148.34 -90 148 C-90.763125 147.79375 -91.52625 147.5875 -92.3125 147.375 C-95.89640302 145.5413752 -96.55040167 143.69647573 -98 140 C-98.6875 137.125 -98.6875 137.125 -99 135 C-99.33 135 -99.66 135 -100 135 C-100 132.69 -100 130.38 -100 128 C-100.66 128 -101.32 128 -102 128 C-102 125 -102 125 -101 124 C-101.33 124 -101.66 124 -102 124 C-102.66 121.03 -103.32 118.06 -104 115 C-103.34 115 -102.68 115 -102 115 C-102 113.68 -102 112.36 -102 111 C-102.66 111 -103.32 111 -104 111 C-103.67 109.35 -103.34 107.7 -103 106 C-103.66 105.67 -104.32 105.34 -105 105 C-105 104.34 -105 103.68 -105 103 C-103.68 103.33 -102.36 103.66 -101 104 C-101.2784375 102.8553125 -101.2784375 102.8553125 -101.5625 101.6875 C-102 99 -102 99 -101 96 C-102.485 96.495 -102.485 96.495 -104 97 C-103.67 94.36 -103.34 91.72 -103 89 C-101.515 88.505 -101.515 88.505 -100 88 C-98.91721716 83.93660013 -98.91721716 83.93660013 -100.02734375 80.078125 C-101.25743156 77.44998557 -100.92242261 76.26899873 -100.1875 73.5 C-99.99542969 72.7471875 -99.80335937 71.994375 -99.60546875 71.21875 C-99.40566406 70.4865625 -99.20585938 69.754375 -99 69 C-98.84144531 68.2884375 -98.68289062 67.576875 -98.51953125 66.84375 C-97.84792385 64.46030119 -96.47773409 62.97031212 -95 61 C-94.29485154 58.85266073 -94.29485154 58.85266073 -94 57 C-93.34 57 -92.68 57 -92 57 C-92 57.66 -92 58.32 -92 59 C-91.34 59 -90.68 59 -90 59 C-89.67 58.01 -89.34 57.02 -89 56 C-90.32 56 -91.64 56 -93 56 C-91.66602243 52.40852194 -90.25016162 49.1156084 -88 46 C-85.8125 45.1875 -85.8125 45.1875 -84 45 C-84.33 44.01 -84.66 43.02 -85 42 C-84.01 41.505 -84.01 41.505 -83 41 C-82.67 40.01 -82.34 39.02 -82 38 C-79.9375 37.3125 -79.9375 37.3125 -78 37 C-78 36.01 -78 35.02 -78 34 C-76.68 33.34 -75.36 32.68 -74 32 C-74 31.01 -74 30.02 -74 29 C-73.071875 28.87625 -73.071875 28.87625 -72.125 28.75 C-69.83330129 28.20673909 -69.83330129 28.20673909 -68.9375 26.0625 C-68.628125 25.381875 -68.31875 24.70125 -68 24 C-67.01 23.34 -66.02 22.68 -65 22 C-64.505 21.505 -64.505 21.505 -64 21 C-63.01 20.525625 -62.02 20.05125 -61 19.5625 C-57.9215844 18.33208274 -57.9215844 18.33208274 -57 16 C-56.34 16 -55.68 16 -55 16 C-54.34 15.01 -53.68 14.02 -53 13 C-50.69034152 11.94647157 -48.3570226 10.94280904 -46 10 C-45.67 9.67 -45.34 9.34 -45 9 C-42.66702567 8.95907063 -40.33294775 8.95758277 -38 9 C-38 8.01 -38 7.02 -38 6 C-35.36 6 -32.72 6 -30 6 C-30 5.34 -30 4.68 -30 4 C-29.01 4 -28.02 4 -27 4 C-27 4.66 -27 5.32 -27 6 C-25.68 5.01 -24.36 4.02 -23 3 C-22.505 3.495 -22.505 3.495 -22 4 C-21.67 3.34 -21.34 2.68 -21 2 C-18 3 -18 3 -15 4 C-14.67 3.34 -14.34 2.68 -14 2 C-13.01 2.99 -13.01 2.99 -12 4 C-11.67 3.01 -11.34 2.02 -11 1 C-7.26562152 0.12132271 -3.83225427 -0.08912219 0 0 Z " fill="#F6F6F6" transform="translate(185,58)"/>
<path d="M0 0 C3.0625 0.3125 3.0625 0.3125 4.8125 1.5 C7.75296881 5.76367977 8.29995604 9.50825002 8.1875 14.625 C8.16945312 15.69363281 8.15140625 16.76226562 8.1328125 17.86328125 C8.10960937 18.67152344 8.08640625 19.47976562 8.0625 20.3125 C10.5375 21.3025 10.5375 21.3025 13.0625 22.3125 C13.52807346 25.49391867 13.57213377 27.56593123 11.7265625 30.26953125 C10.21991976 32.0060608 8.68313536 33.682218 7.0625 35.3125 C6.0725 34.8175 6.0725 34.8175 5.0625 34.3125 C5.43503906 33.84199219 5.80757812 33.37148437 6.19140625 32.88671875 C6.66449219 32.26410156 7.13757813 31.64148438 7.625 31 C8.33849609 30.07767578 8.33849609 30.07767578 9.06640625 29.13671875 C9.55947266 28.23373047 9.55947266 28.23373047 10.0625 27.3125 C9.5675 25.8275 9.5675 25.8275 9.0625 24.3125 C8.4025 23.9825 7.7425 23.6525 7.0625 23.3125 C6.959375 24.17875 6.85625 25.045 6.75 25.9375 C5.90230975 30.09888849 4.69207878 33.87094954 1.4375 36.75 C-0.73805726 39.22222416 -0.53146141 42.1221968 -0.9375 45.3125 C-2.9375 47.3125 -2.9375 47.3125 -6.625 47.625 C-10.98489633 47.53732384 -14.06417637 46.24916181 -17.9375 44.3125 C-16.9475 43.8175 -16.9475 43.8175 -15.9375 43.3125 C-14.4525 43.8075 -14.4525 43.8075 -12.9375 44.3125 C-11.37631572 44.37990865 -9.8124748 44.39764456 -8.25 44.375 C-7.44175781 44.36597656 -6.63351563 44.35695312 -5.80078125 44.34765625 C-5.18589844 44.33605469 -4.57101563 44.32445312 -3.9375 44.3125 C-5.34750435 38.5637961 -5.34750435 38.5637961 -7.9375 33.3125 C-9.26270503 32.62981862 -10.59562182 31.9617959 -11.9375 31.3125 C-13.28765859 27.26202424 -12.55834998 24.5204832 -11.9375 20.3125 C-12.9275 20.3125 -13.9175 20.3125 -14.9375 20.3125 C-15.93967064 23.89577753 -15.93967064 23.89577753 -14.9375 27.3125 C-15.5975 27.3125 -16.2575 27.3125 -16.9375 27.3125 C-16.9375 28.6325 -16.9375 29.9525 -16.9375 31.3125 C-17.9275 31.3125 -18.9175 31.3125 -19.9375 31.3125 C-20.2675 31.9725 -20.5975 32.6325 -20.9375 33.3125 C-21.2675 30.6725 -21.5975 28.0325 -21.9375 25.3125 C-24.9075 25.3125 -27.8775 25.3125 -30.9375 25.3125 C-30.6075 27.2925 -30.2775 29.2725 -29.9375 31.3125 C-30.5975 31.3125 -31.2575 31.3125 -31.9375 31.3125 C-32.2675 29.0025 -32.5975 26.6925 -32.9375 24.3125 C-33.72125 24.209375 -34.505 24.10625 -35.3125 24 C-37.9375 23.3125 -37.9375 23.3125 -39.9375 20.3125 C-40.5 18.0625 -40.5 18.0625 -39.9375 15.3125 C-37.80286686 12.75200489 -35.43112155 10.51986397 -32.9375 8.3125 C-32.2775 8.6425 -31.6175 8.9725 -30.9375 9.3125 C-32.1440625 10.6428125 -32.1440625 10.6428125 -33.375 12 C-35.6414159 14.69537032 -36.62167366 16.73313478 -36.9375 20.3125 C-35.35455218 20.36687607 -33.77105744 20.40546271 -32.1875 20.4375 C-31.30578125 20.46070313 -30.4240625 20.48390625 -29.515625 20.5078125 C-26.79361915 20.30159994 -25.31292601 19.58005925 -22.9375 18.3125 C-21.9475 18.3125 -20.9575 18.3125 -19.9375 18.3125 C-19.9375 16.6625 -19.9375 15.0125 -19.9375 13.3125 C-19.195 13.168125 -18.4525 13.02375 -17.6875 12.875 C-16.78 12.689375 -15.8725 12.50375 -14.9375 12.3125 C-14.215625 12.18875 -13.49375 12.065 -12.75 11.9375 C-10.54664977 11.38247632 -10.54664977 11.38247632 -8.9375 8.3125 C-8.9375 7.3225 -8.9375 6.3325 -8.9375 5.3125 C-10.9175 4.3225 -12.8975 3.3325 -14.9375 2.3125 C-14.9375 1.9825 -14.9375 1.6525 -14.9375 1.3125 C-14.23882812 1.40789062 -13.54015625 1.50328125 -12.8203125 1.6015625 C-11.91023438 1.71242188 -11.00015625 1.82328125 -10.0625 1.9375 C-8.70511719 2.11152344 -8.70511719 2.11152344 -7.3203125 2.2890625 C-6.53398437 2.29679687 -5.74765625 2.30453125 -4.9375 2.3125 C-2.9375 0.3125 -2.9375 0.3125 0 0 Z " fill="#1D1D1D" transform="translate(197.9375,111.6875)"/>
<path d="M0 0 C3.96 0 7.92 0 12 0 C16 4 16 4 16.42578125 6.4375 C16.38839844 7.283125 16.35101563 8.12875 16.3125 9 C16.28800781 9.845625 16.26351562 10.69125 16.23828125 11.5625 C16 14 16 14 15.41796875 16.25 C15.28003906 16.8275 15.14210937 17.405 15 18 C15.33 18.33 15.66 18.66 16 19 C16.23481693 21.18292774 16.41363323 23.37203174 16.5625 25.5625 C16.68818359 27.35880859 16.68818359 27.35880859 16.81640625 29.19140625 C16.87699219 30.11824219 16.93757813 31.04507813 17 32 C15.35 32 13.7 32 12 32 C11.67 28.04 11.34 24.08 11 20 C9.35 19.67 7.7 19.34 6 19 C6.33 23.29 6.66 27.58 7 32 C4.69 32 2.38 32 0 32 C0 21.44 0 10.88 0 0 Z " fill="#262626" transform="translate(137,184)"/>
<path d="M0 0 C1.32 0 2.64 0 4 0 C3.67 0.99 3.34 1.98 3 3 C2.34 3 1.68 3 1 3 C-1.94254088 8.49274298 -2.10256707 12.84597554 -2 19 C-3.32 19 -4.64 19 -6 19 C-5.34 19.66 -4.68 20.32 -4 21 C-3.875 24.125 -3.875 24.125 -4 27 C-5.98 27.99 -7.96 28.98 -10 30 C-9.67 26.7 -9.34 23.4 -9 20 C-9.99 20 -10.98 20 -12 20 C-13.00217064 23.58327753 -13.00217064 23.58327753 -12 27 C-12.66 27 -13.32 27 -14 27 C-14 28.32 -14 29.64 -14 31 C-14.99 31 -15.98 31 -17 31 C-17.33 31.66 -17.66 32.32 -18 33 C-18.33 30.36 -18.66 27.72 -19 25 C-21.97 25 -24.94 25 -28 25 C-27.67 26.98 -27.34 28.96 -27 31 C-27.66 31 -28.32 31 -29 31 C-29.33 28.69 -29.66 26.38 -30 24 C-30.78375 23.896875 -31.5675 23.79375 -32.375 23.6875 C-35 23 -35 23 -37 20 C-37.5625 17.75 -37.5625 17.75 -37 15 C-34.86536686 12.43950489 -32.49362155 10.20736397 -30 8 C-29.34 8.33 -28.68 8.66 -28 9 C-29.2065625 10.3303125 -29.2065625 10.3303125 -30.4375 11.6875 C-32.7039159 14.38287032 -33.68417366 16.42063478 -34 20 C-32.41705218 20.05437607 -30.83355744 20.09296271 -29.25 20.125 C-28.36828125 20.14820313 -27.4865625 20.17140625 -26.578125 20.1953125 C-23.85611915 19.98909994 -22.37542601 19.26755925 -20 18 C-19.01 18 -18.02 18 -17 18 C-17 16.35 -17 14.7 -17 13 C-16.2575 12.855625 -15.515 12.71125 -14.75 12.5625 C-13.8425 12.376875 -12.935 12.19125 -12 12 C-11.278125 11.87625 -10.55625 11.7525 -9.8125 11.625 C-7.60914977 11.06997632 -7.60914977 11.06997632 -6 8 C-6 7.01 -6 6.02 -6 5 C-7.98 4.01 -9.96 3.02 -12 2 C-12 1.67 -12 1.34 -12 1 C-11.30132812 1.09539062 -10.60265625 1.19078125 -9.8828125 1.2890625 C-8.97273438 1.39992188 -8.06265625 1.51078125 -7.125 1.625 C-5.76761719 1.79902344 -5.76761719 1.79902344 -4.3828125 1.9765625 C-3.59648437 1.98429687 -2.81015625 1.99203125 -2 2 C-1.34 1.34 -0.68 0.68 0 0 Z " fill="#1A1A1A" transform="translate(195,112)"/>
<path d="M0 0 C3.45898824 1.45216999 6.73316619 3.15953025 10 5 C7.50935112 5.68707555 5.62113708 6 3 6 C4.65 6.99 6.3 7.98 8 9 C7.64987213 11.59094622 7.26229035 13.5774211 5.875 15.8125 C2.99131838 17.63883169 0.32254207 17.18806842 -3 17 C-3.020625 17.763125 -3.04125 18.52625 -3.0625 19.3125 C-4 22 -4 22 -7.1875 23.8125 C-10.74646871 24.92103124 -13.3137027 25.26972907 -17 25 C-18.09324611 21.62087567 -18.0935707 20.23392674 -16.75 16.875 C-14.16 12.62 -14.16 12.62 -12 11 C-11.01 11 -10.02 11 -9 11 C-9.33 10.34 -9.66 9.68 -10 9 C-10.44396083 3.78346028 -10.44396083 3.78346028 -8.9375 1.125 C-5.73839337 -0.73254578 -3.66690841 -0.46563916 0 0 Z " fill="#2F2F2F" transform="translate(182,108)"/>
<path d="M0 0 C1 2 1 2 0.546875 4.05859375 C0.28390625 4.84363281 0.0209375 5.62867188 -0.25 6.4375 C-0.50265625 7.21996094 -0.7553125 8.00242188 -1.015625 8.80859375 C-2 11 -2 11 -3.609375 12.53515625 C-5.45899686 14.14686001 -5.45899686 14.14686001 -5 18 C-4.401875 18.268125 -3.80375 18.53625 -3.1875 18.8125 C-1 20 -1 20 0.5625 21.625 C2.02978279 23.34561132 2.02978279 23.34561132 5 23 C5.33 22.34 5.66 21.68 6 21 C6.99 20.67 7.98 20.34 9 20 C10.4477922 17.10441559 11 15.25811062 11 12 C12.32 11.67 13.64 11.34 15 11 C19.02046784 15.38596491 19.02046784 15.38596491 18.9375 17.875 C18.628125 18.57625 18.31875 19.2775 18 20 C17.7525 20.59554687 17.505 21.19109375 17.25 21.8046875 C16.5226637 23.54609846 15.76338443 25.27408736 15 27 C14.01 26.67 13.02 26.34 12 26 C11.01 27.65 10.02 29.3 9 31 C8.34 30.01 7.68 29.02 7 28 C6.44828125 28.51175781 5.8965625 29.02351563 5.328125 29.55078125 C3 31 3 31 0.421875 30.85546875 C-0.45984375 30.63503906 -1.3415625 30.41460937 -2.25 30.1875 C-3.14203125 29.97480469 -4.0340625 29.76210937 -4.953125 29.54296875 C-5.62859375 29.36378906 -6.3040625 29.18460938 -7 29 C-7.12246094 28.20207031 -7.24492187 27.40414062 -7.37109375 26.58203125 C-7.7227493 23.84191647 -7.7227493 23.84191647 -10.0625 22.6875 C-10.701875 22.460625 -11.34125 22.23375 -12 22 C-12 18 -12 18 -11 16 C-11 14.41174012 -11.21696224 12.83037765 -11.375 11.25 C-11.38181861 7.44521373 -11.12303388 7.13161764 -8.3125 4.125 C-5.54135725 2.34728578 -3.11835084 1.00887821 0 0 Z " fill="#7C7C7C" transform="translate(173,185)"/>
<path d="M0 0 C1.32 0.33 2.64 0.66 4 1 C3.65598852 7.65088865 2.43613959 10.12024646 -2 15 C-2.94436349 17.16531168 -2.94436349 17.16531168 -3 19 C-1.18884044 20.81115956 1.61278227 20.38199448 4.0625 20.5625 C5.16722656 20.64628906 6.27195313 20.73007813 7.41015625 20.81640625 C8.26480469 20.87699219 9.11945313 20.93757813 10 21 C8 23 8 23 5.50390625 23.23046875 C4.53324219 23.21628906 3.56257813 23.20210937 2.5625 23.1875 C1.59441406 23.18105469 0.62632812 23.17460937 -0.37109375 23.16796875 C-3 23 -3 23 -6 22 C-6.99 22.66 -7.98 23.32 -9 24 C-14.20152091 24.5418251 -14.20152091 24.5418251 -16.75 22.8125 C-20.47884086 17.40568076 -20.22213964 12.35566187 -20 6 C-19.34 6 -18.68 6 -18 6 C-17.67 7.98 -17.34 9.96 -17 12 C-15.70366379 10.93354885 -15.70366379 10.93354885 -15.9375 8.4375 C-15.958125 7.633125 -15.97875 6.82875 -16 6 C-13.04335481 4.5216774 -10.25770263 4.93967217 -7 5 C-6.34 7.31 -5.68 9.62 -5 12 C-4.01 12 -3.02 12 -2 12 C-1.20046862 8.71303767 -0.90341064 7.28976808 -2 4 C-1.0625 1.8125 -1.0625 1.8125 0 0 Z " fill="#282828" transform="translate(183,131)"/>
<path d="M0 0 C1.98 0 3.96 0 6 0 C7.76405007 4.65067745 9.42548518 9.27645553 11 14 C11 9.38 11 4.76 11 0 C12.98 0 14.96 0 17 0 C16.67 10.23 16.34 20.46 16 31 C14.35 30.67 12.7 30.34 11 30 C9.35 24.72 7.7 19.44 6 14 C5.979375 16.248125 5.95875 18.49625 5.9375 20.8125 C5.92589844 22.07707031 5.91429687 23.34164062 5.90234375 24.64453125 C5.83840884 27.99605237 5.83840884 27.99605237 7 31 C4.69 31 2.38 31 0 31 C0.495 29.515 0.495 29.515 1 28 C1.09417917 26.11641666 1.13071168 24.22968518 1.1328125 22.34375 C1.13410156 21.23902344 1.13539063 20.13429687 1.13671875 18.99609375 C1.13285156 17.84238281 1.12898437 16.68867188 1.125 15.5 C1.12886719 14.34628906 1.13273438 13.19257813 1.13671875 12.00390625 C1.13542969 10.89917969 1.13414062 9.79445312 1.1328125 8.65625 C1.13168457 7.64369141 1.13055664 6.63113281 1.12939453 5.58789062 C1.11024476 2.88330389 1.11024476 2.88330389 0 0 Z " fill="#1E1E1E" transform="translate(233,185)"/>
<path d="M0 0 C1.91595968 -0.08133791 3.83291932 -0.13934367 5.75 -0.1875 C7.35101563 -0.23970703 7.35101563 -0.23970703 8.984375 -0.29296875 C12.39908143 0.03877086 13.73514351 0.42703654 16 3 C16.49609375 5.77734375 16.49609375 5.77734375 16.4375 8.9375 C16.43621094 9.97777344 16.43492187 11.01804688 16.43359375 12.08984375 C15.95299999 15.31545053 15.34242439 16.74890867 13 19 C9.3125 19.25 9.3125 19.25 6 19 C6.33 23.29 6.66 27.58 7 32 C5.02 32 3.04 32 1 32 C1.00523682 31.17274414 1.01047363 30.34548828 1.01586914 29.49316406 C1.03665469 25.74545043 1.04966524 21.99774894 1.0625 18.25 C1.07087891 16.94804687 1.07925781 15.64609375 1.08789062 14.3046875 C1.09111328 13.05429688 1.09433594 11.80390625 1.09765625 10.515625 C1.10289307 9.36352539 1.10812988 8.21142578 1.11352539 7.02441406 C1.01804485 4.48073036 0.74917261 2.41601687 0 0 Z " fill="#131313" transform="translate(118,184)"/>
<path d="M0 0 C3.01038477 1.18590915 5.58605556 2.84469247 8 5 C8 5.99 8 6.98 8 8 C8.33 8.66 8.66 9.32 9 10 C8.01 10.66 7.02 11.32 6 12 C3.90966255 14.50840494 2.37326333 17.04220205 1 20 C0.01 20 -0.98 20 -2 20 C-2.33 21.32 -2.66 22.64 -3 24 C-5.91517292 22.92598892 -7.77810176 22.22189824 -10 20 C-10 19.67 -10 19.34 -10 19 C-11.65 18.67 -13.3 18.34 -15 18 C-13.375 11.25 -13.375 11.25 -10 9 C-9.855625 8.030625 -9.71125 7.06125 -9.5625 6.0625 C-9 3 -9 3 -7.25 1.125 C-4.5480802 -0.2259599 -2.98838824 -0.37354853 0 0 Z " fill="#ECECEC" transform="translate(181,186)"/>
<path d="M0 0 C0 0.66 0 1.32 0 2 C2.475 2.495 2.475 2.495 5 3 C5 2.01 5 1.02 5 0 C5.66 0 6.32 0 7 0 C7 0.66 7 1.32 7 2 C8.32 2 9.64 2 11 2 C11.66 2.99 12.32 3.98 13 5 C13.99 5 14.98 5 16 5 C16 4.34 16 3.68 16 3 C14.68 2.67 13.36 2.34 12 2 C13.65 1.67 15.3 1.34 17 1 C17.66 1.99 18.32 2.98 19 4 C20.65816784 4.68753301 22.32459336 5.35561283 24 6 C24.495 6.99 24.495 6.99 25 8 C24.01 8 23.02 8 22 8 C21.67 8.66 21.34 9.32 21 10 C19.02 9.34 17.04 8.68 15 8 C14.67 9.32 14.34 10.64 14 12 C13.01 12 12.02 12 11 12 C11 11.01 11 10.02 11 9 C10.34 9 9.68 9 9 9 C9 9.66 9 10.32 9 11 C8.34 11 7.68 11 7 11 C6.3125 8.6875 6.3125 8.6875 6 6 C7.4375 4.1875 7.4375 4.1875 9 3 C8.34 3 7.68 3 7 3 C7 3.66 7 4.32 7 5 C4.625 7.625 4.625 7.625 2 10 C1.34 10 0.68 10 0 10 C-0.33 9.34 -0.66 8.68 -1 8 C-1.99 8.33 -2.98 8.66 -4 9 C-4 9.66 -4 10.32 -4 11 C-4.66 11 -5.32 11 -6 11 C-5.34 9.35 -4.68 7.7 -4 6 C-6.32357511 5.81509993 -6.32357511 5.81509993 -9 8 C-9.66 8 -10.32 8 -11 8 C-11 8.66 -11 9.32 -11 10 C-13.31 10 -15.62 10 -18 10 C-18 9.34 -18 8.68 -18 8 C-17.01 7.67 -16.02 7.34 -15 7 C-17.31 7.33 -19.62 7.66 -22 8 C-22 8.66 -22 9.32 -22 10 C-23.65 10 -25.3 10 -27 10 C-27.99 8.02 -28.98 6.04 -30 4 C-29.01 4 -28.02 4 -27 4 C-27 4.66 -27 5.32 -27 6 C-25.68 5.01 -24.36 4.02 -23 3 C-22.67 3.33 -22.34 3.66 -22 4 C-21.67 3.34 -21.34 2.68 -21 2 C-18 3 -18 3 -15 4 C-14.67 3.34 -14.34 2.68 -14 2 C-13.34 2.66 -12.68 3.32 -12 4 C-11.67 3.01 -11.34 2.02 -11 1 C-7.26562152 0.12132271 -3.83225427 -0.08912219 0 0 Z " fill="#9B9B9B" transform="translate(185,58)"/>
<path d="M0 0 C1.65 1.32 3.3 2.64 5 4 C4.814375 4.78375 4.62875 5.5675 4.4375 6.375 C3.74037734 8.97089775 3.74037734 8.97089775 5 11 C4.01 11.495 4.01 11.495 3 12 C2.67 12.99 2.34 13.98 2 15 C2.99 15.33 3.98 15.66 5 16 C2.525 20.455 2.525 20.455 0 25 C1.32 24.67 2.64 24.34 4 24 C3.67 25.98 3.34 27.96 3 30 C2.34 30 1.68 30 1 30 C1.33 31.98 1.66 33.96 2 36 C-0.475 36.495 -0.475 36.495 -3 37 C-3 36.01 -3 35.02 -3 34 C-6.465 34.495 -6.465 34.495 -10 35 C-10 33.68 -10 32.36 -10 31 C-7.5 29.25 -7.5 29.25 -5 28 C-4.67 28.66 -4.34 29.32 -4 30 C-4 28.68 -4 27.36 -4 26 C-4.99 25.67 -5.98 25.34 -7 25 C-6.34 23.68 -5.68 22.36 -5 21 C-5.66 20.34 -6.32 19.68 -7 19 C-7 18.01 -7 17.02 -7 16 C-4.69 16 -2.38 16 0 16 C0.33 14.68 0.66 13.36 1 12 C0.01 12 -0.98 12 -2 12 C-2.33 12.66 -2.66 13.32 -3 14 C-4.5625 12.875 -4.5625 12.875 -6 11 C-5.6875 7.8125 -5.6875 7.8125 -5 5 C-4.01 4.67 -3.02 4.34 -2 4 C-2 3.34 -2 2.68 -2 2 C-1.34 2 -0.68 2 0 2 C0 1.34 0 0.68 0 0 Z M-9 18 C-8.34 18.66 -7.68 19.32 -7 20 C-7.66 20 -8.32 20 -9 20 C-9 19.34 -9 18.68 -9 18 Z M-9 24 C-8.34 24.99 -7.68 25.98 -7 27 C-8.98 27.99 -8.98 27.99 -11 29 C-10.34 27.35 -9.68 25.7 -9 24 Z " fill="#AEAEAE" transform="translate(282,152)"/>
<path d="M0 0 C1.65 0 3.3 0 5 0 C5 0.66 5 1.32 5 2 C5.99 2 6.98 2 8 2 C8 2.66 8 3.32 8 4 C6.68 4 5.36 4 4 4 C4 3.34 4 2.68 4 2 C3.34 2 2.68 2 2 2 C2.495 4.475 2.495 4.475 3 7 C4.32 7 5.64 7 7 7 C6.67 7.99 6.34 8.98 6 10 C6 9.34 6 8.68 6 8 C3.69 8 1.38 8 -1 8 C-0.34 7.67 0.32 7.34 1 7 C1 6.34 1 5.68 1 5 C-0.0725 5.61875 -1.145 6.2375 -2.25 6.875 C-4.79780984 8.3323679 -7.35259355 9.72924491 -10 11 C-10 11.66 -10 12.32 -10 13 C-8.68 13.66 -7.36 14.32 -6 15 C-6 15.66 -6 16.32 -6 17 C-6.99 17 -7.98 17 -9 17 C-9.33 17.99 -9.66 18.98 -10 20 C-10.66 20 -11.32 20 -12 20 C-12 20.66 -12 21.32 -12 22 C-13.65 22 -15.3 22 -17 22 C-17.33 21.01 -17.66 20.02 -18 19 C-21.11785113 19.64644661 -21.11785113 19.64644661 -22 22 C-23.65 21.67 -25.3 21.34 -27 21 C-27 20.34 -27 19.68 -27 19 C-27.99 18.67 -28.98 18.34 -30 18 C-29.01 17.34 -28.02 16.68 -27 16 C-26.67 15.67 -26.34 15.34 -26 15 C-25.01 14.525625 -24.02 14.05125 -23 13.5625 C-19.9215844 12.33208274 -19.9215844 12.33208274 -19 10 C-18.34 10 -17.68 10 -17 10 C-16.34 9.01 -15.68 8.02 -15 7 C-12.69034152 5.94647157 -10.3570226 4.94280904 -8 4 C-7.67 3.67 -7.34 3.34 -7 3 C-4.66702567 2.95907063 -2.33294775 2.95758277 0 3 C0 2.01 0 1.02 0 0 Z " fill="#C7C7C7" transform="translate(147,64)"/>
<path d="M0 0 C0.66 0 1.32 0 2 0 C2 0.66 2 1.32 2 2 C2.66 2 3.32 2 4 2 C4 2.66 4 3.32 4 4 C4.99 4.33 5.98 4.66 7 5 C7 5.66 7 6.32 7 7 C7.66 7 8.32 7 9 7 C9 7.66 9 8.32 9 9 C9.99 9 10.98 9 12 9 C12 10.32 12 11.64 12 13 C12.66 13 13.32 13 14 13 C14.33 14.32 14.66 15.64 15 17 C13.35 16.01 11.7 15.02 10 14 C9.67 14.66 9.34 15.32 9 16 C10.32 16.33 11.64 16.66 13 17 C13 17.66 13 18.32 13 19 C14.32 19 15.64 19 17 19 C16.4740625 19.86625 16.4740625 19.86625 15.9375 20.75 C14.81273456 22.93510649 14.81273456 22.93510649 15.25 25.1875 C15.85008433 27.19815586 15.85008433 27.19815586 18 28 C17 31 17 31 16 32 C16.66 32 17.32 32 18 32 C18.495 32.495 18.495 32.495 19 33 C19.33 31.68 19.66 30.36 20 29 C20.66 30.32 21.32 31.64 22 33 C24.97 32.505 24.97 32.505 28 32 C28.66 34.31 29.32 36.62 30 39 C29.34 39 28.68 39 28 39 C27.67 38.01 27.34 37.02 27 36 C25.68 36 24.36 36 23 36 C22.67 36.66 22.34 37.32 22 38 C23.485 38.495 23.485 38.495 25 39 C24.34 39 23.68 39 23 39 C23.350625 39.7425 23.70125 40.485 24.0625 41.25 C25.04509293 44.1322726 25.0326802 45.21176345 24 48 C21 43.375 21 43.375 21 40 C20.01 40 19.02 40 18 40 C18 39.01 18 38.02 18 37 C16.34211215 35.65576661 14.67423683 34.32381517 13 33 C10.49202349 29.54072205 10 28.38746624 10 24 C10.66 23.67 11.32 23.34 12 23 C10.8553125 22.690625 10.8553125 22.690625 9.6875 22.375 C6.10359698 20.5413752 5.44959833 18.69647573 4 15 C3.3125 12.125 3.3125 12.125 3 10 C2.67 10 2.34 10 2 10 C2 7.69 2 5.38 2 3 C1.34 3 0.68 3 0 3 C0 2.01 0 1.02 0 0 Z " fill="#5B5B5B" transform="translate(83,183)"/>
<path d="M0 0 C2.375 1.125 2.375 1.125 4 3 C4.25 6.1875 4.25 6.1875 4 9 C2.68 9 1.36 9 0 9 C-0.33 7.68 -0.66 6.36 -1 5 C-2.32 5 -3.64 5 -5 5 C-5.75758244 7.69802289 -5.75758244 7.69802289 -5 11 C-2.82563879 13.08376282 -0.53828112 14.76682814 1.93359375 16.484375 C4 18 4 18 5 20 C5.203125 22.05859375 5.203125 22.05859375 5.25 24.4375 C5.27578125 25.21996094 5.3015625 26.00242188 5.328125 26.80859375 C5 29 5 29 3.796875 30.7578125 C1.43367988 32.39149956 -0.14338084 32.43324908 -3 32.4375 C-3.86625 32.45683594 -4.7325 32.47617188 -5.625 32.49609375 C-8 32 -8 32 -9.80078125 30.14453125 C-11.23497194 27.57980587 -11.24119949 25.89439385 -11 23 C-9.35 23.33 -7.7 23.66 -6 24 C-5.67 25.32 -5.34 26.64 -5 28 C-3.68 28 -2.36 28 -1 28 C-0.42749843 23.94147165 -0.42749843 23.94147165 -1 20 C-2.90115678 18.04355231 -4.84907477 16.6808311 -7.15234375 15.2265625 C-9 14 -9 14 -10 12 C-10.90830417 4.1528476 -10.90830417 4.1528476 -8.375 0.9375 C-5.33249717 -0.26348796 -3.24757827 -0.40594728 0 0 Z " fill="#222222" transform="translate(208,184)"/>
<path d="M0 0 C4.62 0 9.24 0 14 0 C14 1.65 14 3.3 14 5 C13.01 5 12.02 5 11 5 C11 4.34 11 3.68 11 3 C9.02 3 7.04 3 5 3 C5 6.3 5 9.6 5 13 C7.31 13 9.62 13 12 13 C12 14.32 12 15.64 12 17 C9.69 17 7.38 17 5 17 C5 20.63 5 24.26 5 28 C7.97 27.34 10.94 26.68 14 26 C14 27.65 14 29.3 14 31 C9.38 31 4.76 31 0 31 C0 20.77 0 10.54 0 0 Z " fill="#1E1E1E" transform="translate(216,185)"/>
<path d="M0 0 C0.66 0 1.32 0 2 0 C2.33 0.99 2.66 1.98 3 3 C2.34 3 1.68 3 1 3 C1 3.66 1 4.32 1 5 C1.99 5 2.98 5 4 5 C4.33 4.34 4.66 3.68 5 3 C8 4 8 4 9 6 C9 5.01 9 4.02 9 3 C9.99 3 10.98 3 12 3 C12.66 2.67 13.32 2.34 14 2 C13.67 3.65 13.34 5.3 13 7 C14.65 7.66 16.3 8.32 18 9 C18 8.01 18 7.02 18 6 C17.01 5.67 16.02 5.34 15 5 C16.60320974 4.80448662 18.20762986 4.61888017 19.8125 4.4375 C20.70582031 4.33308594 21.59914062 4.22867187 22.51953125 4.12109375 C25.45734379 3.97767298 27.38966444 4.69483222 30 6 C29.34 7.65 28.68 9.3 28 11 C25.525 10.01 25.525 10.01 23 9 C23 9.66 23 10.32 23 11 C15.54253343 11.1355903 8.29425774 10.64709046 1 9 C1.33 8.01 1.66 7.02 2 6 C1.01 6 0.02 6 -1 6 C-0.67 6.99 -0.34 7.98 0 9 C-9.33041575 7.82713348 -9.33041575 7.82713348 -12.125 4.375 C-12.41375 3.59125 -12.7025 2.8075 -13 2 C-9 2 -5 2 -1 2 C-0.67 1.34 -0.34 0.68 0 0 Z " fill="#808080" transform="translate(163,253)"/>
<path d="M0 0 C0.66 0.33 1.32 0.66 2 1 C2 2.98 2 4.96 2 7 C2.66 7 3.32 7 4 7 C4 7.66 4 8.32 4 9 C2.35 9.66 0.7 10.32 -1 11 C-1 11.99 -1 12.98 -1 14 C-0.01 14.33 0.98 14.66 2 15 C2 14.34 2 13.68 2 13 C2.66 13.33 3.32 13.66 4 14 C4 15.98 4 17.96 4 20 C3.01 20.33 2.02 20.66 1 21 C0.67 21.66 0.34 22.32 0 23 C0 22.34 0 21.68 0 21 C-1.65 21.33 -3.3 21.66 -5 22 C-5 21.34 -5 20.68 -5 20 C-6.65 19.67 -8.3 19.34 -10 19 C-9.505 17.515 -9.505 17.515 -9 16 C-8.34 16 -7.68 16 -7 16 C-6.04774134 11.81006189 -5.82390709 9.71215849 -8 6 C-8 5.01 -8 4.02 -8 3 C-5.34771188 1.92474806 -2.71631546 0.90543849 0 0 Z " fill="#B1B1B1" transform="translate(92,130)"/>
<path d="M0 0 C0.66 0.33 1.32 0.66 2 1 C2.40729228 3.32156597 2.74438677 5.6568787 3 8 C3.61875 8.0825 4.2375 8.165 4.875 8.25 C7 9 7 9 8.25 11.0625 C8.4975 11.701875 8.745 12.34125 9 13 C8.34 13.66 7.68 14.32 7 15 C7.78375 15.2475 8.5675 15.495 9.375 15.75 C12 17 12 17 13.3125 18.875 C14 21 14 21 14 25 C12.02 25.33 10.04 25.66 8 26 C7.67 25.34 7.34 24.68 7 24 C6.67 24.99 6.34 25.98 6 27 C6.99 27 7.98 27 9 27 C9 27.66 9 28.32 9 29 C7.02 28.67 5.04 28.34 3 28 C2.67 28.66 2.34 29.32 2 30 C2.495 25.545 2.495 25.545 3 21 C2.01 20.67 1.02 20.34 0 20 C0.875 16.125 0.875 16.125 2 15 C2 14.01 2 13.02 2 12 C2 11.34 2 10.68 2 10 C1.36525925 8.65117592 0.70151152 7.3153341 0 6 C-0.66 6 -1.32 6 -2 6 C-2 5.34 -2 4.68 -2 4 C-1.34 4 -0.68 4 0 4 C0 2.68 0 1.36 0 0 Z " fill="#B9B9B9" transform="translate(266,101)"/>
<path d="M0 0 C2.375 0.3125 2.375 0.3125 5 1 C7 4 7 4 6.625 6.1875 C6.41875 6.785625 6.2125 7.38375 6 8 C6.99 8.33 7.98 8.66 9 9 C9 10.98 9 12.96 9 15 C8.34 15 7.68 15 7 15 C6.67 14.01 6.34 13.02 6 12 C6.061875 12.94875 6.12375 13.8975 6.1875 14.875 C6.125625 15.90625 6.06375 16.9375 6 18 C3 20 3 20 0 20 C0 19.34 0 18.68 0 18 C0.99 17.67 1.98 17.34 3 17 C3.33 16.34 3.66 15.68 4 15 C2.02 15 0.04 15 -2 15 C-2.268125 14.195625 -2.53625 13.39125 -2.8125 12.5625 C-3.204375 11.716875 -3.59625 10.87125 -4 10 C-4.99 9.67 -5.98 9.34 -7 9 C-7 8.01 -7 7.02 -7 6 C-5.68 5.67 -4.36 5.34 -3 5 C-3 4.34 -3 3.68 -3 3 C-2.01 3 -1.02 3 0 3 C0 2.01 0 1.02 0 0 Z " fill="#D4D4D4" transform="translate(276,128)"/>
<path d="M0 0 C1.98 0 3.96 0 6 0 C8.08135307 5.29798964 9.71291613 10.45563871 11 16 C9.68 16 8.36 16 7 16 C6.67 15.34 6.34 14.68 6 14 C5.97300275 16.27076842 5.95360547 18.54162821 5.9375 20.8125 C5.92589844 22.07707031 5.91429687 23.34164062 5.90234375 24.64453125 C5.83840884 27.99605237 5.83840884 27.99605237 7 31 C4.69 31 2.38 31 0 31 C0.495 29.515 0.495 29.515 1 28 C1.09417917 26.11641666 1.13071168 24.22968518 1.1328125 22.34375 C1.13410156 21.23902344 1.13539063 20.13429687 1.13671875 18.99609375 C1.13285156 17.84238281 1.12898437 16.68867188 1.125 15.5 C1.12886719 14.34628906 1.13273438 13.19257813 1.13671875 12.00390625 C1.13542969 10.89917969 1.13414062 9.79445312 1.1328125 8.65625 C1.13168457 7.64369141 1.13055664 6.63113281 1.12939453 5.58789062 C1.11024476 2.88330389 1.11024476 2.88330389 0 0 Z " fill="#171717" transform="translate(233,185)"/>
<path d="M0 0 C0.66 0.33 1.32 0.66 2 1 C1.67 2.32 1.34 3.64 1 5 C1.99 4.67 2.98 4.34 4 4 C4.33 4.99 4.66 5.98 5 7 C2.01758453 7.77321882 -0.97580475 8.41196203 -4 9 C-1.36 9.33 1.28 9.66 4 10 C4 10.99 4 11.98 4 13 C1.03 12.505 1.03 12.505 -2 12 C-2.433125 12.928125 -2.433125 12.928125 -2.875 13.875 C-4 16 -4 16 -6 18 C-6.70710678 19.64991582 -7.37943989 21.31562256 -8 23 C-10.83967231 23 -13.23735711 22.59732819 -16 22 C-15.505 20.515 -15.505 20.515 -15 19 C-15 18.01 -15 17.02 -15 16 C-13 13 -13 13 -10.875 12.3125 C-10.25625 12.209375 -9.6375 12.10625 -9 12 C-9 11.01 -9 10.02 -9 9 C-7.68 8.34 -6.36 7.68 -5 7 C-5 6.01 -5 5.02 -5 4 C-4.0409375 3.8453125 -4.0409375 3.8453125 -3.0625 3.6875 C-2.381875 3.460625 -1.70125 3.23375 -1 3 C-0.67 2.01 -0.34 1.02 0 0 Z " fill="#A6A6A6" transform="translate(116,83)"/>
<path d="M0 0 C0.12375 0.928125 0.12375 0.928125 0.25 1.875 C0.81258459 4.18437567 0.81258459 4.18437567 3.0625 5.25 C3.701875 5.4975 4.34125 5.745 5 6 C4.01 6.33 3.02 6.66 2 7 C2 7.66 2 8.32 2 9 C3.32 9 4.64 9 6 9 C6 9.66 6 10.32 6 11 C1.56923077 13.09230769 1.56923077 13.09230769 -1.3125 12.625 C-1.869375 12.41875 -2.42625 12.2125 -3 12 C-3.66 13.32 -4.32 14.64 -5 16 C-6.64666203 15.8864371 -8.29236082 15.75882619 -9.9375 15.625 C-10.85402344 15.55539063 -11.77054688 15.48578125 -12.71484375 15.4140625 C-13.84599609 15.20910156 -13.84599609 15.20910156 -15 15 C-15.33 14.34 -15.66 13.68 -16 13 C-13.36 13 -10.72 13 -8 13 C-8.33 12.01 -8.66 11.02 -9 10 C-8.34 10 -7.68 10 -7 10 C-7.185625 9.443125 -7.37125 8.88625 -7.5625 8.3125 C-8.07551165 5.600867 -7.6640724 3.65628961 -7 1 C-2.25 0 -2.25 0 0 0 Z " fill="#EDEDED" transform="translate(229,240)"/>
<path d="M0 0 C1 2 1 2 0.546875 4.05859375 C0.28390625 4.84363281 0.0209375 5.62867188 -0.25 6.4375 C-0.50265625 7.21996094 -0.7553125 8.00242188 -1.015625 8.80859375 C-2.04951257 11.1102244 -3.23776029 12.24264184 -5 14 C-5.4167552 17.04211431 -5.4167552 17.04211431 -5 20 C-4.34 20.66 -3.68 21.32 -3 22 C-5.31 22 -7.62 22 -10 22 C-11.0625 20.125 -11.0625 20.125 -12 18 C-11.67 17.34 -11.34 16.68 -11 16 C-11 14.41174012 -11.21696224 12.83037765 -11.375 11.25 C-11.38181861 7.44521373 -11.12303388 7.13161764 -8.3125 4.125 C-5.54135725 2.34728578 -3.11835084 1.00887821 0 0 Z " fill="#545454" transform="translate(173,185)"/>
<path d="M0 0 C2 1.3125 2 1.3125 4 3 C4 3.99 4 4.98 4 6 C4.61875 6.0825 5.2375 6.165 5.875 6.25 C8 7 8 7 9.25 9.0625 C9.4975 9.701875 9.745 10.34125 10 11 C9.34 11.66 8.68 12.32 8 13 C8 13.99 8 14.98 8 16 C5 17 2 18 -1 19 C-1.33820166 17.4176994 -1.67035939 15.83410625 -2 14.25 C-2.185625 13.36828125 -2.37125 12.4865625 -2.5625 11.578125 C-3.05131761 8.69759266 -3 5.91447655 -3 3 C0 4 0 4 2 6 C2 5.01 2 4.02 2 3 C1.34 3 0.68 3 0 3 C0 2.01 0 1.02 0 0 Z " fill="#B5B5B5" transform="translate(256,88)"/>
<path d="M0 0 C1.98 0 3.96 0 6 0 C5.01 0.495 5.01 0.495 4 1 C3.7834375 2.3303125 3.7834375 2.3303125 3.5625 3.6875 C2.8533671 7.86350485 1.61793523 11.56874961 -1.625 14.4375 C-3.80055726 16.90972416 -3.59396141 19.8096968 -4 23 C-6 25 -6 25 -9.6875 25.3125 C-14.04739633 25.22482384 -17.12667637 23.93666181 -21 22 C-20.34 21.67 -19.68 21.34 -19 21 C-18.01 21.33 -17.02 21.66 -16 22 C-14.43881572 22.06740865 -12.8749748 22.08514456 -11.3125 22.0625 C-10.50425781 22.05347656 -9.69601563 22.04445312 -8.86328125 22.03515625 C-8.24839844 22.02355469 -7.63351563 22.01195312 -7 22 C-8.04097612 18.13351728 -9.03698408 14.50538557 -11 11 C-10.34 11 -9.68 11 -9 11 C-8.67 10.34 -8.34 9.68 -8 9 C-7.34 9.66 -6.68 10.32 -6 11 C-3.46915186 11.31241113 -3.46915186 11.31241113 -1 10 C0.36996111 7.43806485 1.21785366 4.79156294 2 2 C1.34 1.34 0.68 0.68 0 0 Z " fill="#2D2D2D" transform="translate(201,134)"/>
<path d="M0 0 C1.65 0 3.3 0 5 0 C5 0.66 5 1.32 5 2 C5.99 2 6.98 2 8 2 C8 2.66 8 3.32 8 4 C6.68 4 5.36 4 4 4 C4 3.34 4 2.68 4 2 C3.34 2 2.68 2 2 2 C2.33 3.65 2.66 5.3 3 7 C4.32 7 5.64 7 7 7 C6.67 7.99 6.34 8.98 6 10 C6 9.34 6 8.68 6 8 C3.69 8 1.38 8 -1 8 C-0.34 7.67 0.32 7.34 1 7 C1 6.34 1 5.68 1 5 C-0.72810308 5.99698255 -2.45613011 6.9940974 -4.18359375 7.9921875 C-6 9 -6 9 -8.3125 10 C-10.17440684 10.89758237 -10.17440684 10.89758237 -11 13 C-12.24508396 15.49016793 -13.46716796 15.98686718 -16 17 C-14.68 15.02 -13.36 13.04 -12 11 C-13.32 11 -14.64 11 -16 11 C-15.9375 9.1875 -15.9375 9.1875 -15 7 C-11.5 5.3125 -11.5 5.3125 -8 4 C-7.67 3.67 -7.34 3.34 -7 3 C-4.66702567 2.95907063 -2.33294775 2.95758277 0 3 C0 2.01 0 1.02 0 0 Z " fill="#595959" transform="translate(147,64)"/>
<path d="M0 0 C1.65 1.32 3.3 2.64 5 4 C4.814375 4.78375 4.62875 5.5675 4.4375 6.375 C3.74037734 8.97089775 3.74037734 8.97089775 5 11 C4.01 11.495 4.01 11.495 3 12 C2.67 12.99 2.34 13.98 2 15 C2.99 15.33 3.98 15.66 5 16 C2.525 20.455 2.525 20.455 0 25 C-0.66 25 -1.32 25 -2 25 C-0.80100302 21.9168649 0.47700477 18.93720508 2 16 C1.34 16 0.68 16 0 16 C0.33 14.68 0.66 13.36 1 12 C0.01 12 -0.98 12 -2 12 C-2.33 12.66 -2.66 13.32 -3 14 C-4.5625 12.875 -4.5625 12.875 -6 11 C-5.6875 7.8125 -5.6875 7.8125 -5 5 C-4.01 4.67 -3.02 4.34 -2 4 C-2 3.34 -2 2.68 -2 2 C-1.34 2 -0.68 2 0 2 C0 1.34 0 0.68 0 0 Z " fill="#D1D1D1" transform="translate(282,152)"/>
<path d="M0 0 C0.66 0 1.32 0 2 0 C2 0.99 2 1.98 2 3 C2.66 2.34 3.32 1.68 4 1 C4.99 1.33 5.98 1.66 7 2 C6.67 3.98 6.34 5.96 6 8 C5.34 8 4.68 8 4 8 C4 7.01 4 6.02 4 5 C3.34 7.31 2.68 9.62 2 12 C1.34 12 0.68 12 0 12 C0 12.66 0 13.32 0 14 C-1.32 14 -2.64 14 -4 14 C-4 13.34 -4 12.68 -4 12 C-4.66 12 -5.32 12 -6 12 C-6 11.34 -6 10.68 -6 10 C-6.66 10 -7.32 10 -8 10 C-6.25 5.125 -6.25 5.125 -4 4 C-4 3.01 -4 2.02 -4 1 C-3.01 1.33 -2.02 1.66 -1 2 C-0.67 1.34 -0.34 0.68 0 0 Z " fill="#9B9B9B" transform="translate(275,189)"/>
<path d="M0 0 C0.66 0 1.32 0 2 0 C2.33 2.97 2.66 5.94 3 9 C2.34 9 1.68 9 1 9 C0.93941406 9.67546875 0.87882812 10.3509375 0.81640625 11.046875 C0.73261719 11.93890625 0.64882812 12.8309375 0.5625 13.75 C0.48128906 14.63171875 0.40007812 15.5134375 0.31640625 16.421875 C0.03761535 18.69350452 -0.38790577 20.79851823 -1 23 C-0.34 23 0.32 23 1 23 C1 23.66 1 24.32 1 25 C-0.65 24.67 -2.3 24.34 -4 24 C-4 22.35 -4 20.7 -4 19 C-5.65 19.33 -7.3 19.66 -9 20 C-8.690625 19.2575 -8.38125 18.515 -8.0625 17.75 C-7.1905075 15.49307824 -6.52332993 13.3549847 -6 11 C-5.34 11 -4.68 11 -4 11 C-4 11.66 -4 12.32 -4 13 C-3.34 13 -2.68 13 -2 13 C-1.67 12.01 -1.34 11.02 -1 10 C-2.32 10 -3.64 10 -5 10 C-3.66749209 6.4124787 -2.169283 3.1635377 0 0 Z " fill="#909090" transform="translate(97,104)"/>
<path d="M0 0 C0 0.66 0 1.32 0 2 C2.64 2.33 5.28 2.66 8 3 C7.67 3.99 7.34 4.98 7 6 C9.475 6.495 9.475 6.495 12 7 C11.67 8.32 11.34 9.64 11 11 C9.68 10.67 8.36 10.34 7 10 C7 9.34 7 8.68 7 8 C6.01 7.67 5.02 7.34 4 7 C4.66 8.98 5.32 10.96 6 13 C5.01 12.67 4.02 12.34 3 12 C3 11.34 3 10.68 3 10 C1.68 10.33 0.36 10.66 -1 11 C-1 10.34 -1 9.68 -1 9 C-0.34 8.67 0.32 8.34 1 8 C-0.65 8 -2.3 8 -4 8 C-3.67 6.35 -3.34 4.7 -3 3 C-3.639375 2.896875 -4.27875 2.79375 -4.9375 2.6875 C-5.618125 2.460625 -6.29875 2.23375 -7 2 C-7.33 1.01 -7.66 0.02 -8 -1 C-4.37673261 -2.2077558 -3.35853631 -1.54311128 0 0 Z " fill="#929292" transform="translate(218,64)"/>
<path d="M0 0 C5.07612318 -0.61528766 7.82982006 1.38341651 12 4 C12 4.66 12 5.32 12 6 C11.34 6 10.68 6 10 6 C10 6.99 10 7.98 10 9 C11.32 9 12.64 9 14 9 C14 11.31 14 13.62 14 16 C12.68 15.67 11.36 15.34 10 15 C10 14.01 10 13.02 10 12 C8.02 11.34 6.04 10.68 4 10 C4 9.34 4 8.68 4 8 C3.34 8 2.68 8 2 8 C2 7.01 2 6.02 2 5 C1.01 4.67 0.02 4.34 -1 4 C-0.67 2.68 -0.34 1.36 0 0 Z " fill="#BCBCBC" transform="translate(110,227)"/>
<path d="M0 0 C1.32 0.33 2.64 0.66 4 1 C4 1.66 4 2.32 4 3 C4.66 3 5.32 3 6 3 C6.875 5.6875 6.875 5.6875 7 9 C4.3125 11.9375 4.3125 11.9375 1 14 C-1.375 13.8125 -1.375 13.8125 -3 13 C-3.12375 12.030625 -3.2475 11.06125 -3.375 10.0625 C-3.58125 9.051875 -3.7875 8.04125 -4 7 C-4.66 6.67 -5.32 6.34 -6 6 C-6 5.34 -6 4.68 -6 4 C-4.35 4 -2.7 4 -1 4 C-0.67 2.68 -0.34 1.36 0 0 Z " fill="#D1D1D1" transform="translate(200,66)"/>
<path d="M0 0 C6.90909091 6.72727273 6.90909091 6.72727273 7.1875 10.625 C7 13 7 13 6 14 C4.1875 14.1328125 4.1875 14.1328125 2 14.125 C1.278125 14.12757813 0.55625 14.13015625 -0.1875 14.1328125 C-2 14 -2 14 -3 13 C-3.26172156 8.46349292 -3.04297042 5.08594083 -1 1 C-0.67 0.67 -0.34 0.34 0 0 Z " fill="#F1F1F1" transform="translate(195,117)"/>
<path d="M0 0 C1 1 1 1 1.1875 4.25 C1.01338941 7.73221175 0.50198876 9.90214817 -1 13 C-4.80625982 11.50468364 -6.77940501 9.41019944 -9 6 C-9.25 3.1875 -9.25 3.1875 -9 1 C-6.01787087 -0.49106457 -3.28390342 -0.11941467 0 0 Z " fill="#F2F2F2" transform="translate(176,136)"/>
<path d="M0 0 C1.9375 0.8125 1.9375 0.8125 3.9375 2.8125 C4.0625 5.9375 4.0625 5.9375 3.9375 8.8125 C-0.29199995 11.22935712 -3.18585991 12.16083144 -8.0625 11.8125 C-7.63655412 10.37153414 -7.19623367 8.93481288 -6.75 7.5 C-6.50636719 6.69949219 -6.26273438 5.89898437 -6.01171875 5.07421875 C-4.73145923 2.02372384 -3.53494187 -0.32135835 0 0 Z " fill="#F5F5F5" transform="translate(173.0625,121.1875)"/>
<path d="M0 0 C-0.45082469 1.46067199 -0.91093537 2.91848032 -1.375 4.375 C-1.63023437 5.18710938 -1.88546875 5.99921875 -2.1484375 6.8359375 C-3 9 -3 9 -5 11 C-7.5 10.8125 -7.5 10.8125 -10 10 C-12.1519437 6.77208445 -12.20086443 5.71599191 -12 2 C-8.09971775 -0.60018816 -4.52565431 -0.15085514 0 0 Z " fill="#F4F4F4" transform="translate(204,135)"/>
<path d="M0 0 C2.35171131 0.59861742 4.6859378 1.26924352 7 2 C7.33 2.66 7.66 3.32 8 4 C6.68 4.33 5.36 4.66 4 5 C4.66 5.33 5.32 5.66 6 6 C5.67 7.65 5.34 9.3 5 11 C2.69 11.33 0.38 11.66 -2 12 C-2 11.34 -2 10.68 -2 10 C-2.66 10 -3.32 10 -4 10 C-4 10.66 -4 11.32 -4 12 C-5.32 12.33 -6.64 12.66 -8 13 C-8 12.34 -8 11.68 -8 11 C-7.34 10.67 -6.68 10.34 -6 10 C-6.33 7.36 -6.66 4.72 -7 2 C-5.02 2.495 -5.02 2.495 -3 3 C-3 3.66 -3 4.32 -3 5 C-2.01 5.33 -1.02 5.66 0 6 C0 4.02 0 2.04 0 0 Z " fill="#ADADAD" transform="translate(229,69)"/>
<path d="M0 0 C4.25742137 0.47304682 6.25705098 2.8863822 9 6 C9.33 6.99 9.66 7.98 10 9 C7.47524538 10.26237731 5.68799534 10.09856404 2.875 10.0625 C1.96492187 10.05347656 1.05484375 10.04445312 0.1171875 10.03515625 C-0.58148438 10.02355469 -1.28015625 10.01195312 -2 10 C-2.66 8.68 -3.32 7.36 -4 6 C-2.68 4.02 -1.36 2.04 0 0 Z " fill="#F8F8F8" transform="translate(183,142)"/>
<path d="M0 0 C1.32 0 2.64 0 4 0 C3.67 4.62 3.34 9.24 3 14 C5.97 13.34 8.94 12.68 12 12 C12 13.65 12 15.3 12 17 C7.38 17 2.76 17 -2 17 C-1.67 15.68 -1.34 14.36 -1 13 C-0.7801777 10.75292759 -0.59516013 8.50228762 -0.4375 6.25 C-0.35371094 5.07953125 -0.26992187 3.9090625 -0.18359375 2.703125 C-0.12300781 1.81109375 -0.06242188 0.9190625 0 0 Z " fill="#121212" transform="translate(218,199)"/>
<path d="M0 0 C0.680625 -0.01417969 1.36125 -0.02835937 2.0625 -0.04296875 C4 0.1875 4 0.1875 7 2.1875 C6.63287028 4.90425995 6.27255401 6.79813713 4.6875 9.0625 C3 10.1875 3 10.1875 1.09765625 9.94140625 C-1.30143201 9.0791641 -2.48536067 8.0725694 -4.25 6.25 C-4.77078125 5.72535156 -5.2915625 5.20070313 -5.828125 4.66015625 C-7 3.1875 -7 3.1875 -7 1.1875 C-4.35559361 0.3060312 -2.71939248 0.02575182 0 0 Z " fill="#F9F9F9" transform="translate(183,114.8125)"/>
<path d="M0 0 C0.66 0 1.32 0 2 0 C1.67 1.65 1.34 3.3 1 5 C3.475 5.99 3.475 5.99 6 7 C6 6.01 6 5.02 6 4 C5.01 3.67 4.02 3.34 3 3 C4.60320974 2.80448662 6.20762986 2.61888017 7.8125 2.4375 C8.70582031 2.33308594 9.59914062 2.22867187 10.51953125 2.12109375 C13.45734379 1.97767298 15.38966444 2.69483222 18 4 C17.34 5.65 16.68 7.3 16 9 C14.35 8.34 12.7 7.68 11 7 C11 7.66 11 8.32 11 9 C4.49686791 9.46450943 0.5825192 8.32575612 -5 5 C-4.34 4.67 -3.68 4.34 -3 4 C-3 3.01 -3 2.02 -3 1 C-2.01 1 -1.02 1 0 1 C0 0.67 0 0.34 0 0 Z " fill="#545454" transform="translate(175,255)"/>
<path d="M0 0 C2.31 0.33 4.62 0.66 7 1 C7 2.32 7 3.64 7 5 C6.01 5.495 6.01 5.495 5 6 C5 6.99 5 7.98 5 9 C4.38349568 10.74767967 3.71120239 12.47616924 3 14.1875 C2.62875 15.08855469 2.2575 15.98960937 1.875 16.91796875 C1.58625 17.60503906 1.2975 18.29210937 1 19 C0.01 19 -0.98 19 -2 19 C-2 18.01 -2 17.02 -2 16 C-1.34 16 -0.68 16 0 16 C0 14.68 0 13.36 0 12 C-0.66 12 -1.32 12 -2 12 C-1.67 10.35 -1.34 8.7 -1 7 C-1.66 6.67 -2.32 6.34 -3 6 C-3 5.34 -3 4.68 -3 4 C-1.68 4.33 -0.36 4.66 1 5 C0.67 3.35 0.34 1.7 0 0 Z " fill="#646464" transform="translate(83,157)"/>
<path d="M0 0 C0.66 0.33 1.32 0.66 2 1 C2.33 1.99 2.66 2.98 3 4 C4.98 3.67 6.96 3.34 9 3 C9.66 5.31 10.32 7.62 11 10 C10.34 10 9.68 10 9 10 C8.67 9.01 8.34 8.02 8 7 C6.68 7 5.36 7 4 7 C3.67 7.66 3.34 8.32 3 9 C3.99 9.33 4.98 9.66 6 10 C5.34 10 4.68 10 4 10 C4.350625 10.7425 4.70125 11.485 5.0625 12.25 C6.04509293 15.1322726 6.0326802 16.21176345 5 19 C2 14.375 2 14.375 2 11 C1.01 11 0.02 11 -1 11 C-1 10.01 -1 9.02 -1 8 C-2.9375006 5.81222534 -2.9375006 5.81222534 -5 4 C-3.0625 3.4375 -3.0625 3.4375 -1 3 C-0.67 3.33 -0.34 3.66 0 4 C0 2.68 0 1.36 0 0 Z " fill="#424242" transform="translate(102,212)"/>
<path d="M0 0 C4.23777475 0.5168018 7.39604939 2.48531195 10.5625 5.3125 C10.5625 6.3025 10.5625 7.2925 10.5625 8.3125 C10.8925 8.9725 11.2225 9.6325 11.5625 10.3125 C5.65721732 9.92417075 0.80460819 9.15197527 -4.4375 6.3125 C-4.7675 5.3225 -5.0975 4.3325 -5.4375 3.3125 C-3.67960025 1.09199505 -2.86045963 0.36672559 0 0 Z " fill="#707070" transform="translate(178.4375,185.6875)"/>
<path d="M0 0 C0.66 0 1.32 0 2 0 C2.391875 1.216875 2.78375 2.43375 3.1875 3.6875 C4.6827758 7.7563755 6.84613732 10.01661638 10 13 C10 13.99 10 14.98 10 16 C10.66 16.33 11.32 16.66 12 17 C11 18 11 18 8.125 18.25 C5 18 5 18 3.25 16.8125 C-0.47884086 11.40568076 -0.22213964 6.35566187 0 0 Z " fill="#1F1F1F" transform="translate(163,137)"/>
<path d="M0 0 C0.66 0.33 1.32 0.66 2 1 C2 2.98 2 4.96 2 7 C2.66 7 3.32 7 4 7 C4 7.66 4 8.32 4 9 C2.35 9.66 0.7 10.32 -1 11 C-1 12.65 -1 14.3 -1 16 C-2.5 14.6875 -2.5 14.6875 -4 13 C-4 12.01 -4 11.02 -4 10 C-4.66 10 -5.32 10 -6 10 C-7.4606285 7.35261084 -8 6.10551666 -8 3 C-5.34771188 1.92474806 -2.71631546 0.90543849 0 0 Z " fill="#A1A1A1" transform="translate(92,130)"/>
<path d="M0 0 C0.66 0 1.32 0 2 0 C2.33 0.66 2.66 1.32 3 2 C5.02463255 2.65213292 5.02463255 2.65213292 7 3 C6.67 4.98 6.34 6.96 6 9 C7.2065625 9.433125 7.2065625 9.433125 8.4375 9.875 C11 11 11 11 12 13 C4.25 14.125 4.25 14.125 2 13 C2.33 11.68 2.66 10.36 3 9 C0.69 8.34 -1.62 7.68 -4 7 C-4 6.67 -4 6.34 -4 6 C-2.35 5.67 -0.7 5.34 1 5 C0.67 3.35 0.34 1.7 0 0 Z " fill="#AAAAAA" transform="translate(205,246)"/>
<path d="M0 0 C4.62162162 1.45945946 4.62162162 1.45945946 6.3125 3.875 C7 6 7 6 7 10 C5.02 10.33 3.04 10.66 1 11 C0.67 10.34 0.34 9.68 0 9 C-0.33 9.99 -0.66 10.98 -1 12 C-0.01 12 0.98 12 2 12 C2 12.66 2 13.32 2 14 C-0.97 13.505 -0.97 13.505 -4 13 C-4.33 13.66 -4.66 14.32 -5 15 C-4.29880002 11.84460011 -3.21138129 8.99282435 -2 6 C-1.32204472 4.00379834 -0.65266469 2.00461299 0 0 Z " fill="#BFBFBF" transform="translate(273,116)"/>
<path d="M0 0 C0.61875 0.639375 1.2375 1.27875 1.875 1.9375 C3.82597612 4.03883584 3.82597612 4.03883584 6 5 C7.26229508 9.47540984 7.26229508 9.47540984 6 12 C1.25 12.125 1.25 12.125 -1 11 C-1 10.01 -1 9.02 -1 8 C-2.32 8 -3.64 8 -5 8 C-5.33 6.35 -5.66 4.7 -6 3 C-5.34 3 -4.68 3 -4 3 C-4 3.66 -4 4.32 -4 5 C-2.68 5 -1.36 5 0 5 C0 4.34 0 3.68 0 3 C-0.66 3 -1.32 3 -2 3 C-2 2.34 -2 1.68 -2 1 C-1.34 0.67 -0.68 0.34 0 0 Z " fill="#C5C5C5" transform="translate(155,63)"/>
<path d="M0 0 C2.97 0 5.94 0 9 0 C8.08541782 3.65832872 6.99523834 5.87701826 5 9 C5.66 9 6.32 9 7 9 C6.67 9.99 6.34 10.98 6 12 C4.02 11.34 2.04 10.68 0 10 C0.66 8.35 1.32 6.7 2 5 C1.34 4.34 0.68 3.68 0 3 C0 2.01 0 1.02 0 0 Z M-2 2 C-1.34 2.66 -0.68 3.32 0 4 C-0.66 4 -1.32 4 -2 4 C-2 3.34 -2 2.68 -2 2 Z M-2 8 C-1.34 8.99 -0.68 9.98 0 11 C-1.98 11.99 -1.98 11.99 -4 13 C-3.34 11.35 -2.68 9.7 -2 8 Z " fill="#E3E3E3" transform="translate(275,168)"/>
<path d="M0 0 C0.33 0 0.66 0 1 0 C3 6.625 3 6.625 3 10 C1.34107528 11.65892472 -0.60047418 11.24986813 -2.875 11.3125 C-4.20144531 11.36857422 -4.20144531 11.36857422 -5.5546875 11.42578125 C-8 11 -8 11 -9.80859375 9.15234375 C-11.23027178 6.58400082 -11.24101886 4.89222633 -11 2 C-8.525 2.495 -8.525 2.495 -6 3 C-5.67 4.32 -5.34 5.64 -5 7 C-3.68 7 -2.36 7 -1 7 C-0.67 4.69 -0.34 2.38 0 0 Z " fill="#2D2D2D" transform="translate(208,205)"/>
<path d="M0 0 C0.99 0.33 1.98 0.66 3 1 C3 1.66 3 2.32 3 3 C4.32 3 5.64 3 7 3 C6.649375 3.5775 6.29875 4.155 5.9375 4.75 C4.81273456 6.93510649 4.81273456 6.93510649 5.25 9.1875 C5.85008433 11.19815586 5.85008433 11.19815586 8 12 C7 15 7 15 4.9375 16.1875 C4.298125 16.455625 3.65875 16.72375 3 17 C0.70620251 13.55930376 0 12.27709699 0 8 C0.66 7.67 1.32 7.34 2 7 C1.01 6.67 0.02 6.34 -1 6 C-0.67 4.02 -0.34 2.04 0 0 Z " fill="#636363" transform="translate(93,199)"/>
<path d="M0 0 C1.299375 0.3403125 1.299375 0.3403125 2.625 0.6875 C4.0171875 0.9659375 4.0171875 0.9659375 5.4375 1.25 C6.159375 1.394375 6.88125 1.53875 7.625 1.6875 C7.625 2.6775 7.625 3.6675 7.625 4.6875 C6.305 4.3575 4.985 4.0275 3.625 3.6875 C3.625 4.6775 3.625 5.6675 3.625 6.6875 C2.635 6.3575 1.645 6.0275 0.625 5.6875 C0.955 5.0275 1.285 4.3675 1.625 3.6875 C0.635 3.6875 -0.355 3.6875 -1.375 3.6875 C-1.375 5.0075 -1.375 6.3275 -1.375 7.6875 C-0.385 8.0175 0.605 8.3475 1.625 8.6875 C0.625 9.6875 0.625 9.6875 -2.4375 9.75 C-3.406875 9.729375 -4.37625 9.70875 -5.375 9.6875 C-4.715 8.0375 -4.055 6.3875 -3.375 4.6875 C-4.365 4.6875 -5.355 4.6875 -6.375 4.6875 C-5.16681675 1.06295025 -4.00583067 -0.52708298 0 0 Z " fill="#848484" transform="translate(239.375,238.3125)"/>
<path d="M0 0 C2.47442734 1.46632731 2.86515773 3.32738762 3.6875 6 C2.6975 6 1.7075 6 0.6875 6 C1.6775 7.485 1.6775 7.485 2.6875 9 C4.0075 8.67 5.3275 8.34 6.6875 8 C6.3575 9.32 6.0275 10.64 5.6875 12 C2.3875 11.34 -0.9125 10.68 -4.3125 10 C-4.6425 8.35 -4.9725 6.7 -5.3125 5 C-7.28008273 3.63979849 -7.28008273 3.63979849 -9.3125 3 C-3.0725 0 -3.0725 0 0 0 Z " fill="#858585" transform="translate(170.3125,204)"/>
<path d="M0 0 C2.625 0.9375 2.625 0.9375 5 2 C4.67 3.65 4.34 5.3 4 7 C5.98 6.67 7.96 6.34 10 6 C9.67 6.66 9.34 7.32 9 8 C8.34 8 7.68 8 7 8 C6.67 8.99 6.34 9.98 6 11 C5.34 11 4.68 11 4 11 C4 10.34 4 9.68 4 9 C3.195625 9.020625 2.39125 9.04125 1.5625 9.0625 C-1 9 -1 9 -2 8 C-2.04092937 5.66702567 -2.04241723 3.33294775 -2 1 C-1.34 0.67 -0.68 0.34 0 0 Z " fill="#C9C9C9" transform="translate(210,65)"/>
<path d="M0 0 C1.32 0 2.64 0 4 0 C4.37125 1.2065625 4.37125 1.2065625 4.75 2.4375 C5.72238859 5.171081 5.72238859 5.171081 8.125 5.8125 C9.053125 5.9053125 9.053125 5.9053125 10 6 C9.67 6.66 9.34 7.32 9 8 C8.34 8 7.68 8 7 8 C7 8.66 7 9.32 7 10 C9.16874252 9.49396008 10.99967627 9.00016187 13 8 C13 9.65 13 11.3 13 13 C12.34 13 11.68 13 11 13 C11 13.99 11 14.98 11 16 C10.34 16 9.68 16 9 16 C8.67 15.34 8.34 14.68 8 14 C7.34 14 6.68 14 6 14 C5.71125 13.0925 5.4225 12.185 5.125 11.25 C4.12884377 8.10623356 4.12884377 8.10623356 2.8125 5.75 C2.544375 5.1725 2.27625 4.595 2 4 C2.33 3.34 2.66 2.68 3 2 C1.68 2.33 0.36 2.66 -1 3 C-0.67 2.01 -0.34 1.02 0 0 Z " fill="#5E5E5E" transform="translate(241,77)"/>
<path d="M0 0 C1.32 0.66 2.64 1.32 4 2 C3.67 2.99 3.34 3.98 3 5 C1.68 5 0.36 5 -1 5 C-1 5.66 -1 6.32 -1 7 C-0.34 7 0.32 7 1 7 C1 7.66 1 8.32 1 9 C0.01 9.33 -0.98 9.66 -2 10 C-2.33 10.66 -2.66 11.32 -3 12 C-4.65 11.67 -6.3 11.34 -8 11 C-8 10.34 -8 9.68 -8 9 C-8.99 8.67 -9.98 8.34 -11 8 C-10.01 7.34 -9.02 6.68 -8 6 C-7.67 5.67 -7.34 5.34 -7 5 C-6.01 4.525625 -5.02 4.05125 -4 3.5625 C-0.9215844 2.33208274 -0.9215844 2.33208274 0 0 Z " fill="#8F8F8F" transform="translate(128,74)"/>
<path d="M0 0 C1.65 0 3.3 0 5 0 C6 1 6 1 6.1328125 3.03125 C6.13023437 3.8459375 6.12765625 4.660625 6.125 5.5 C6.12757813 6.3146875 6.13015625 7.129375 6.1328125 7.96875 C6 10 6 10 5 11 C3.35 11 1.7 11 0 11 C0 7.37 0 3.74 0 0 Z " fill="#FBFBFB" transform="translate(124,188)"/>
<path d="M0 0 C1 2 1 2 0.44140625 4.1640625 C0.15136719 4.97617188 -0.13867188 5.78828125 -0.4375 6.625 C-0.72496094 7.44226563 -1.01242188 8.25953125 -1.30859375 9.1015625 C-1.65083984 10.04128906 -1.65083984 10.04128906 -2 11 C-2.78375 10.979375 -3.5675 10.95875 -4.375 10.9375 C-6.98114961 10.81315937 -6.98114961 10.81315937 -9 12 C-9.32105822 8.46835953 -9.48213712 6.64284949 -7.3125 3.75 C-4.94161906 1.95581983 -2.81097087 0.93699029 0 0 Z " fill="#919191" transform="translate(173,185)"/>
<path d="M0 0 C1.65 0 3.3 0 5 0 C6.89885096 1.89885096 6.12367506 4.57247903 6.1328125 7.08984375 C6 9 6 9 5 11 C3.35 11 1.7 11 0 11 C0 7.37 0 3.74 0 0 Z " fill="#EEEEEE" transform="translate(143,188)"/>
<path d="M0 0 C1.91541138 -0.10841951 3.83259773 -0.18578079 5.75 -0.25 C6.81734375 -0.29640625 7.8846875 -0.3428125 8.984375 -0.390625 C12.63802112 0.08264522 13.72228105 1.19155042 16 4 C12.30458414 4.95024979 9.69541586 4.95024979 6 4 C5.67 4.66 5.34 5.32 5 6 C2.5 4.6875 2.5 4.6875 0 3 C0 2.01 0 1.02 0 0 Z " fill="#1B1B1B" transform="translate(118,184)"/>
<path d="M0 0 C0.66 0 1.32 0 2 0 C2 1.32 2 2.64 2 4 C2.66 4 3.32 4 4 4 C3.67 4.99 3.34 5.98 3 7 C1.68 6.67 0.36 6.34 -1 6 C-0.01 7.485 -0.01 7.485 1 9 C2.1875 11.0625 2.1875 11.0625 3 13 C2.67 13.66 2.34 14.32 2 15 C-1.71599191 15.20086443 -2.77208445 15.1519437 -6 13 C-5.67 11.35 -5.34 9.7 -5 8 C-4.34 8.66 -3.68 9.32 -3 10 C-3.061875 9.05125 -3.12375 8.1025 -3.1875 7.125 C-3.125625 6.09375 -3.06375 5.0625 -3 4 C-2.01 3.34 -1.02 2.68 0 2 C0 1.34 0 0.68 0 0 Z " fill="#747474" transform="translate(89,169)"/>
<path d="M0 0 C1.32 0 2.64 0 4 0 C3.67 0.99 3.34 1.98 3 3 C2.34 3 1.68 3 1 3 C0.566875 3.86625 0.566875 3.86625 0.125 4.75 C-0.91666667 6.83333333 -1.95833333 8.91666667 -3 11 C-3 10.34 -3 9.68 -3 9 C-3.99 9.33 -4.98 9.66 -6 10 C-6 8.35 -6 6.7 -6 5 C-7.98 4.01 -9.96 3.02 -12 2 C-12 1.67 -12 1.34 -12 1 C-10.95199219 1.14308594 -10.95199219 1.14308594 -9.8828125 1.2890625 C-8.97273437 1.39992188 -8.06265625 1.51078125 -7.125 1.625 C-5.76761719 1.79902344 -5.76761719 1.79902344 -4.3828125 1.9765625 C-3.59648437 1.98429687 -2.81015625 1.99203125 -2 2 C-1.34 1.34 -0.68 0.68 0 0 Z " fill="#1F1F1F" transform="translate(195,112)"/>
<path d="M0 0 C2 0.66666667 4 1.33333333 6 2 C6.33 1.34 6.66 0.68 7 0 C7.66 1.32 8.32 2.64 9 4 C7.3603125 4.2165625 7.3603125 4.2165625 5.6875 4.4375 C2.06877013 4.88288104 2.06877013 4.88288104 -1 6 C-1 6.66 -1 7.32 -1 8 C-2.65 8 -4.3 8 -6 8 C-6.99 6.02 -7.98 4.04 -9 2 C-8.01 2 -7.02 2 -6 2 C-6 2.66 -6 3.32 -6 4 C-4.68 3.01 -3.36 2.02 -2 1 C-1.67 1.33 -1.34 1.66 -1 2 C-0.67 1.34 -0.34 0.68 0 0 Z " fill="#696969" transform="translate(164,60)"/>
<path d="M0 0 C0.36923077 5.53846154 0.36923077 5.53846154 -1.5 7.875 C-1.995 8.24625 -2.49 8.6175 -3 9 C-3.33 8.01 -3.66 7.02 -4 6 C-5.98 6.99 -5.98 6.99 -8 8 C-8.33 7.67 -8.66 7.34 -9 7 C-10.66014616 6.63557767 -12.32706064 6.30027117 -14 6 C-14.33 5.01 -14.66 4.02 -15 3 C-1.63106796 0 -1.63106796 0 0 0 Z " fill="#4C4C4C" transform="translate(184,207)"/>
<path d="M0 0 C2.375 0.3125 2.375 0.3125 5 1 C7 4 7 4 6.625 6.1875 C6.41875 6.785625 6.2125 7.38375 6 8 C6.99 8.33 7.98 8.66 9 9 C9 10.98 9 12.96 9 15 C8.34 15 7.68 15 7 15 C2.42857143 7.71428571 2.42857143 7.71428571 3 3 C-0.04134491 4.66924071 -0.04134491 4.66924071 -1 7 C-1.66 5.68 -2.32 4.36 -3 3 C-2.01 3 -1.02 3 0 3 C0 2.01 0 1.02 0 0 Z " fill="#454545" transform="translate(276,128)"/>
<path d="M0 0 C2.97 0.495 2.97 0.495 6 1 C5.67 1.66 5.34 2.32 5 3 C4.34 3 3.68 3 3 3 C3 3.66 3 4.32 3 5 C4.32 5 5.64 5 7 5 C7 5.66 7 6.32 7 7 C2.56923077 9.09230769 2.56923077 9.09230769 -0.3125 8.625 C-0.869375 8.41875 -1.42625 8.2125 -2 8 C-2.66 9.32 -3.32 10.64 -4 12 C-5.64666203 11.8864371 -7.29236082 11.75882619 -8.9375 11.625 C-9.85402344 11.55539063 -10.77054688 11.48578125 -11.71484375 11.4140625 C-12.84599609 11.20910156 -12.84599609 11.20910156 -14 11 C-14.33 10.34 -14.66 9.68 -15 9 C-11.7 9.33 -8.4 9.66 -5 10 C-4.67 8.68 -4.34 7.36 -4 6 C-2.35 6 -0.7 6 1 6 C0.67 4.02 0.34 2.04 0 0 Z " fill="#262626" transform="translate(228,244)"/>
<path d="M0 0 C3.00600344 1.74542135 3.88498266 2.57532059 4.8125 6 C5 9 5 9 4 12 C2.02 12.33 0.04 12.66 -2 13 C-2.97001682 9.60494113 -3 6.52935443 -3 3 C0 4 0 4 2 6 C2 5.01 2 4.02 2 3 C1.34 3 0.68 3 0 3 C0 2.01 0 1.02 0 0 Z " fill="#838383" transform="translate(256,88)"/>
<path d="M0 0 C0.66 0 1.32 0 2 0 C2.33 0.99 2.66 1.98 3 3 C5.00016466 4.20882096 5.00016466 4.20882096 7 5 C1.75614911 6.7479503 -2.47322267 7.19392201 -8 7 C-8 6.01 -8 5.02 -8 4 C-7.34 4 -6.68 4 -6 4 C-6 3.01 -6 2.02 -6 1 C-3 2 -3 2 0 3 C0 2.01 0 1.02 0 0 Z " fill="#474747" transform="translate(202,256)"/>
<path d="M0 0 C-0.598125 0.721875 -1.19625 1.44375 -1.8125 2.1875 C-4.02550962 4.88636626 -4.02550962 4.88636626 -5.5 7.6875 C-7.12455247 10.19201839 -8.24968783 10.95677814 -11 12 C-9.68 10.02 -8.36 8.04 -7 6 C-8.32 6 -9.64 6 -11 6 C-10.8125 4.125 -10.8125 4.125 -10 2 C-6.62176024 0.12320013 -3.82367701 -0.21849583 0 0 Z " fill="#A6A6A6" transform="translate(142,69)"/>
<path d="M0 0 C0.66 0.33 1.32 0.66 2 1 C1.67 2.32 1.34 3.64 1 5 C1.99 4.67 2.98 4.34 4 4 C4.33 4.99 4.66 5.98 5 7 C2.79240529 7.57233937 0.62690222 8.06218296 -1.625 8.4375 C-4.17107484 8.82100329 -4.17107484 8.82100329 -6 11 C-8.125 10.625 -8.125 10.625 -10 10 C-9.175 9.566875 -8.35 9.13375 -7.5 8.6875 C-6.2625 7.8521875 -6.2625 7.8521875 -5 7 C-5 6.01 -5 5.02 -5 4 C-4.360625 3.896875 -3.72125 3.79375 -3.0625 3.6875 C-2.381875 3.460625 -1.70125 3.23375 -1 3 C-0.67 2.01 -0.34 1.02 0 0 Z " fill="#656565" transform="translate(116,83)"/>
<path d="M0 0 C4.62 0 9.24 0 14 0 C14 1.65 14 3.3 14 5 C13.01 5 12.02 5 11 5 C11 4.34 11 3.68 11 3 C9.9275 3.185625 8.855 3.37125 7.75 3.5625 C4.59608454 3.9304568 2.90181508 4.04465343 0 3 C0 2.01 0 1.02 0 0 Z " fill="#121212" transform="translate(216,185)"/>
<path d="M0 0 C0 0.66 0 1.32 0 2 C2.64 2.33 5.28 2.66 8 3 C8 3.33 8 3.66 8 4 C5.03 3.67 2.06 3.34 -1 3 C-1 3.66 -1 4.32 -1 5 C0.65 5 2.3 5 4 5 C4 5.33 4 5.66 4 6 C2.02 6 0.04 6 -2 6 C-2 6.66 -2 7.32 -2 8 C-2.66 8 -3.32 8 -4 8 C-3.67 6.35 -3.34 4.7 -3 3 C-3.639375 2.896875 -4.27875 2.79375 -4.9375 2.6875 C-5.618125 2.460625 -6.29875 2.23375 -7 2 C-7.33 1.01 -7.66 0.02 -8 -1 C-4.37673261 -2.2077558 -3.35853631 -1.54311128 0 0 Z " fill="#454545" transform="translate(218,64)"/>
<path d="M0 0 C0 1.98 0 3.96 0 6 C-5.14291273 8.57145636 -10.85496608 6.68001108 -16 5 C-16 4.01 -16 3.02 -16 2 C-15.34 2.33 -14.68 2.66 -14 3 C-12.12620395 3.07033769 -10.24998898 3.0843022 -8.375 3.0625 C-7.37210938 3.05347656 -6.36921875 3.04445312 -5.3359375 3.03515625 C-4.56507813 3.02355469 -3.79421875 3.01195312 -3 3 C-3 2.34 -3 1.68 -3 1 C-1 0 -1 0 0 0 Z " fill="#CCCCCC" transform="translate(194,150)"/>
<path d="M0 0 C0 2 0 2 -1.5 3.625 C-1.995 4.07875 -2.49 4.5325 -3 5 C-2.67 5.66 -2.34 6.32 -2 7 C-3.65 7.33 -5.3 7.66 -7 8 C-7 8.66 -7 9.32 -7 10 C-9.31 10 -11.62 10 -14 10 C-14 9.34 -14 8.68 -14 8 C-12.824375 7.6596875 -12.824375 7.6596875 -11.625 7.3125 C-8.76777147 6.25064593 -8.76777147 6.25064593 -8 3.4375 C-7.67 2.633125 -7.34 1.82875 -7 1 C-4.54115028 0.20087384 -2.56909202 0 0 0 Z " fill="#797979" transform="translate(181,58)"/>
<path d="M0 0 C1.32 0.33 2.64 0.66 4 1 C3.125 8.75 3.125 8.75 2 11 C0.68 10.67 -0.64 10.34 -2 10 C-2 6.09567131 -1.31626692 3.61973402 0 0 Z " fill="#1D1D1D" transform="translate(183,131)"/>
<path d="M0 0 C0 0.66 0 1.32 0 2 C-0.7425 2.33 -1.485 2.66 -2.25 3 C-6.41184536 6.02679663 -7.40021549 10.23639584 -9 15 C-9.99 15 -10.98 15 -12 15 C-11.74086272 8.65113652 -9.61254026 5.3311386 -5 1 C-3 0 -3 0 0 0 Z " fill="#B0B0B0" transform="translate(173,117)"/>
<path d="M0 0 C4 0 4 0 7 1 C5.515 3.475 5.515 3.475 4 6 C4.99 6.33 5.98 6.66 7 7 C5.35 9.97 3.7 12.94 2 16 C1.34 16 0.68 16 0 16 C1.19899698 12.9168649 2.47700477 9.93720508 4 7 C3.34 7 2.68 7 2 7 C2.33 5.68 2.66 4.36 3 3 C2.01 3 1.02 3 0 3 C-0.33 3.66 -0.66 4.32 -1 5 C-1.33 4.01 -1.66 3.02 -2 2 C-1.34 2 -0.68 2 0 2 C0 1.34 0 0.68 0 0 Z " fill="#2F2F2F" transform="translate(280,161)"/>
<path d="M0 0 C0.33 0 0.66 0 1 0 C0.25 6.75 0.25 6.75 -2 9 C-7.97496094 9.50635262 -11.66553 8.667235 -17 6 C-16.34 5.67 -15.68 5.34 -15 5 C-14.01 5.33 -13.02 5.66 -12 6 C-10.43881572 6.06740865 -8.8749748 6.08514456 -7.3125 6.0625 C-6.50425781 6.05347656 -5.69601563 6.04445312 -4.86328125 6.03515625 C-4.24839844 6.02355469 -3.63351563 6.01195312 -3 6 C-2.67 4.68 -2.34 3.36 -2 2 C-1.67 2.66 -1.34 3.32 -1 4 C-0.67 2.68 -0.34 1.36 0 0 Z " fill="#313131" transform="translate(197,150)"/>
<path d="M0 0 C1.32 0.66 2.64 1.32 4 2 C0.65441176 11.00735294 0.65441176 11.00735294 -3.1875 13.3125 C-4.0846875 13.6528125 -4.0846875 13.6528125 -5 14 C-4.731875 13.360625 -4.46375 12.72125 -4.1875 12.0625 C-2.64635858 8.08797739 -1.32390688 4.05115505 0 0 Z " fill="#D7D7D7" transform="translate(205,135)"/>
<path d="M0 0 C0 1.32 0 2.64 0 4 C-0.66 4 -1.32 4 -2 4 C-2 4.99 -2 5.98 -2 7 C-2.99 6.67 -3.98 6.34 -5 6 C-5 5.34 -5 4.68 -5 4 C-6.65 3.67 -8.3 3.34 -10 3 C-10 3.66 -10 4.32 -10 5 C-10.66 4.67 -11.32 4.34 -12 4 C-11.67 3.01 -11.34 2.02 -11 1 C-7.50970582 -0.47666292 -3.72563614 -0.07164685 0 0 Z " fill="#B0B0B0" transform="translate(153,72)"/>
<path d="M0 0 C0.66 0 1.32 0 2 0 C2.33 2.31 2.66 4.62 3 7 C1.02 7.66 -0.96 8.32 -3 9 C-4.32 7.68 -5.64 6.36 -7 5 C-6.401875 4.9175 -5.80375 4.835 -5.1875 4.75 C-2.400657 3.79451097 -1.67123014 2.3549152 0 0 Z " fill="#8D8D8D" transform="translate(134,241)"/>
<path d="M0 0 C4.43090471 1.20842856 6.98112756 2.51668565 10 6 C2.25 7.125 2.25 7.125 0 6 C0 4.02 0 2.04 0 0 Z " fill="#737373" transform="translate(207,253)"/>
<path d="M0 0 C0.33 0.99 0.66 1.98 1 3 C3.01508358 3.73323796 3.01508358 3.73323796 5 4 C4.125 7.875 4.125 7.875 3 9 C2.731875 9.66 2.46375 10.32 2.1875 11 C1.795625 11.66 1.40375 12.32 1 13 C-0.32 13.33 -1.64 13.66 -3 14 C-2.01 9.38 -1.02 4.76 0 0 Z " fill="#595959" transform="translate(266,209)"/>
<path d="M0 0 C2.31 0.33 4.62 0.66 7 1 C7 5 7 5 5.125 7.25 C3 9 3 9 1 9 C0.67 6.03 0.34 3.06 0 0 Z " fill="#A6A6A6" transform="translate(83,157)"/>
<path d="M0 0 C2.3125 -0.3125 2.3125 -0.3125 5 0 C8.99170423 5.13219116 9.12178637 9.66710895 9 16 C8.67 16 8.34 16 8 16 C7.6596875 14.1746875 7.6596875 14.1746875 7.3125 12.3125 C6.26357549 8.01038933 4.30409929 5.96521731 1 3 C0.67 2.01 0.34 1.02 0 0 Z " fill="#E4E4E4" transform="translate(196,115)"/>
<path d="M0 0 C0.66 0 1.32 0 2 0 C2.33 0.66 2.66 1.32 3 2 C5.02463255 2.65213292 5.02463255 2.65213292 7 3 C7 5.31 7 7.62 7 10 C5.68 9.67 4.36 9.34 3 9 C3 8.01 3 7.02 3 6 C1.02 5.34 -0.96 4.68 -3 4 C-1.625 2 -1.625 2 0 0 Z " fill="#4E4E4E" transform="translate(117,233)"/>
<path d="M0 0 C0.99 0 1.98 0 3 0 C4.23076923 6.4 4.23076923 6.4 3.0625 9.4375 C2.711875 9.953125 2.36125 10.46875 2 11 C-0.31 10.67 -2.62 10.34 -5 10 C-5 9.34 -5 8.68 -5 8 C-1.25 6.875 -1.25 6.875 1 8 C0.2236068 4.9254644 0.2236068 4.9254644 -2 3 C-1.34 3 -0.68 3 0 3 C0 2.01 0 1.02 0 0 Z " fill="#484848" transform="translate(259,217)"/>
<path d="M0 0 C0.66 0.66 1.32 1.32 2 2 C1.01 3.485 1.01 3.485 0 5 C-0.07905064 7.33199388 -0.08798769 9.66832622 0 12 C-0.33 10.68 -0.66 9.36 -1 8 C-1.66 8 -2.32 8 -3 8 C-3.33 9.32 -3.66 10.64 -4 12 C-5.5 10.625 -5.5 10.625 -7 9 C-7 8.34 -7 7.68 -7 7 C-6.01 6.67 -5.02 6.34 -4 6 C-3.29788106 4.34795544 -2.63028587 2.68076231 -2 1 C-1.34 0.67 -0.68 0.34 0 0 Z " fill="#919191" transform="translate(186,199)"/>
<path d="M0 0 C7.5 -0.375 7.5 -0.375 12 3 C7.71 3.66 3.42 4.32 -1 5 C-0.67 3.35 -0.34 1.7 0 0 Z " fill="#DADADA" transform="translate(176,110)"/>
<path d="M0 0 C0.33 0 0.66 0 1 0 C1 2.97 1 5.94 1 9 C1.66 9 2.32 9 3 9 C3 9.99 3 10.98 3 12 C1.35 12 -0.3 12 -2 12 C-2.05395478 10.37536158 -2.09277195 8.75021459 -2.125 7.125 C-2.14820313 6.22007812 -2.17140625 5.31515625 -2.1953125 4.3828125 C-2 2 -2 2 0 0 Z " fill="#121212" transform="translate(151,204)"/>
<path d="M0 0 C1.32 0.66 2.64 1.32 4 2 C4 3.98 4 5.96 4 8 C2.02 8.99 0.04 9.98 -2 11 C-1.34 7.37 -0.68 3.74 0 0 Z " fill="#181818" transform="translate(187,131)"/>
<path d="M0 0 C0.625 1.8125 0.625 1.8125 1 4 C0.01 5.485 0.01 5.485 -1 7 C-3.625 7.1875 -3.625 7.1875 -6 7 C-6 7.66 -6 8.32 -6 9 C-6.66 8.67 -7.32 8.34 -8 8 C-6.125 3.25 -6.125 3.25 -5 1 C-2.4375 0.375 -2.4375 0.375 0 0 Z " fill="#BBBBBB" transform="translate(93,122)"/>
<path d="M0 0 C0.66 0.33 1.32 0.66 2 1 C1.195625 1.886875 0.39125 2.77375 -0.4375 3.6875 C-2.7039159 6.38287032 -3.68417366 8.42063478 -4 12 C-3.01 12.33 -2.02 12.66 -1 13 C-2.98 13.99 -2.98 13.99 -5 15 C-7 12 -7 12 -7.5625 9.75 C-6.65523229 5.31446898 -3.30099574 2.92205491 0 0 Z " fill="#2F2F2F" transform="translate(165,120)"/>
<path d="M0 0 C0.66 0.33 1.32 0.66 2 1 C2.40729228 3.32156597 2.74438677 5.6568787 3 8 C3.61875 8.0825 4.2375 8.165 4.875 8.25 C7 9 7 9 8.25 11.0625 C8.4975 11.701875 8.745 12.34125 9 13 C8.01 13.66 7.02 14.32 6 15 C6 13.68 6 12.36 6 11 C5.38125 10.9175 4.7625 10.835 4.125 10.75 C2 10 2 10 0.75 7.9375 C0.37875 6.9784375 0.37875 6.9784375 0 6 C-0.66 6 -1.32 6 -2 6 C-2 5.34 -2 4.68 -2 4 C-1.34 4 -0.68 4 0 4 C0 2.68 0 1.36 0 0 Z " fill="#585858" transform="translate(266,101)"/>
<path d="M0 0 C0.33 0.66 0.66 1.32 1 2 C0.67 2.99 0.34 3.98 0 5 C-0.99 5 -1.98 5 -3 5 C-2.67 5.99 -2.34 6.98 -2 8 C-3.65 7.67 -5.3 7.34 -7 7 C-7 6.34 -7 5.68 -7 5 C-9.97 4.505 -9.97 4.505 -13 4 C-13 3.34 -13 2.68 -13 2 C-11.1746875 2.3403125 -11.1746875 2.3403125 -9.3125 2.6875 C-6.02379309 3.11976343 -5.12653537 3.06063153 -2 1.5625 C-1.34 1.046875 -0.68 0.53125 0 0 Z " fill="#555555" transform="translate(277,202)"/>
<path d="M0 0 C0.66 0 1.32 0 2 0 C2 0.99 2 1.98 2 3 C2.66 2.34 3.32 1.68 4 1 C4.99 1.33 5.98 1.66 7 2 C6.67 3.98 6.34 5.96 6 8 C5.34 8 4.68 8 4 8 C4 7.01 4 6.02 4 5 C2.05000871 5.19471111 2.05000871 5.19471111 0 6 C-0.66 7.32 -1.32 8.64 -2 10 C-1.34 6.7 -0.68 3.4 0 0 Z " fill="#454545" transform="translate(275,189)"/>
<path d="M0 0 C2.81579728 0.97096458 3.96750077 1.9558939 5.75 4.375 C7.5457949 9.5828052 7.23838409 14.54365313 7 20 C6.34 19.67 5.68 19.34 5 19 C5.061875 18.01 5.12375 17.02 5.1875 16 C5.1875 11.69221307 4.10354092 7.76559795 2 4 C1.01 3.34 0.02 2.68 -1 2 C-0.67 1.34 -0.34 0.68 0 0 Z " fill="#2E2E2E" transform="translate(199,112)"/>
<path d="M0 0 C2.33944736 0.28730055 4.6739143 0.61936779 7 1 C6.34 2.98 5.68 4.96 5 7 C2.36 6.34 -0.28 5.68 -3 5 C-1.125 1.125 -1.125 1.125 0 0 Z " fill="#D8D8D8" transform="translate(186,257)"/>
<path d="M0 0 C2.475 0.495 2.475 0.495 5 1 C4.71890887 2.64767247 4.42481474 4.29313145 4.125 5.9375 C3.96257812 6.85402344 3.80015625 7.77054688 3.6328125 8.71484375 C3.42398437 9.46894531 3.21515625 10.22304687 3 11 C2.01 11.495 2.01 11.495 1 12 C0.3738105 7.92976825 0 4.12361375 0 0 Z " fill="#BEBEBE" transform="translate(261,211)"/>
<path d="M0 0 C2.73075357 0.26007177 4.33000552 0.7746464 6.625 2.25 C6.955 2.91 7.285 3.57 7.625 4.25 C3.11795775 5.37676056 3.11795775 5.37676056 0.4375 4.6875 C-0.160625 4.543125 -0.75875 4.39875 -1.375 4.25 C-2.035 4.91 -2.695 5.57 -3.375 6.25 C-4.035 6.25 -4.695 6.25 -5.375 6.25 C-4.64843149 2.61715744 -4.06835993 0.42824841 0 0 Z " fill="#4B4B4B" transform="translate(178.375,185.75)"/>
<path d="M0 0 C1.875 0.125 1.875 0.125 4 1 C5.64661571 4.6068725 6.27162597 6.1851221 5 10 C3.35 10.33 1.7 10.66 0 11 C0 10.34 0 9.68 0 9 C0.99 8.67 1.98 8.34 3 8 C3.33 7.34 3.66 6.68 4 6 C2.02 6 0.04 6 -2 6 C-2.33 5.34 -2.66 4.68 -3 4 C-1.35 3.67 0.3 3.34 2 3 C1.34 2.01 0.68 1.02 0 0 Z " fill="#4C4C4C" transform="translate(276,137)"/>
<path d="M0 0 C2.3125 -0.3125 2.3125 -0.3125 5 0 C6.6875 2.4375 6.6875 2.4375 8 5 C8.66 5.33 9.32 5.66 10 6 C10 6.66 10 7.32 10 8 C8.35 8 6.7 8 5 8 C4.67 7.01 4.34 6.02 4 5 C1.99983534 3.79117904 1.99983534 3.79117904 0 3 C0 2.01 0 1.02 0 0 Z " fill="#C0C0C0" transform="translate(105,218)"/>
<path d="M0 0 C1.98 0 3.96 0 6 0 C6 1.98 6 3.96 6 6 C5.34 6 4.68 6 4 6 C3.67 7.65 3.34 9.3 3 11 C2.67 11 2.34 11 2 11 C1.77213542 9.01432292 1.54427083 7.02864583 1.31640625 5.04296875 C1.02829265 2.80603607 1.02829265 2.80603607 0 0 Z " fill="#131313" transform="translate(233,185)"/>
<path d="M0 0 C2.66666667 2.66666667 5.33333333 5.33333333 8 8 C7.67 8.99 7.34 9.98 7 11 C5.1875 10.875 5.1875 10.875 3 10 C0.71094011 6.32115375 0 4.38448044 0 0 Z " fill="#E1E1E1" transform="translate(165,142)"/>
<path d="M0 0 C0.99 0.33 1.98 0.66 3 1 C3.46557346 4.18141867 3.50963377 6.25343123 1.6640625 8.95703125 C0.15741976 10.6935608 -1.37936464 12.369718 -3 14 C-3.66 13.67 -4.32 13.34 -5 13 C-4.62746094 12.54109375 -4.25492188 12.0821875 -3.87109375 11.609375 C-3.39800781 10.99578125 -2.92492187 10.3821875 -2.4375 9.75 C-1.96183594 9.14671875 -1.48617187 8.5434375 -0.99609375 7.921875 C0.26620214 5.48638646 -0.20546506 4.54672128 -1 2 C-0.67 1.34 -0.34 0.68 0 0 Z " fill="#2E2E2E" transform="translate(208,133)"/>
<path d="M0 0 C0.99 0.495 0.99 0.495 2 1 C2.33 1.99 2.66 2.98 3 4 C4.98 3.67 6.96 3.34 9 3 C9.66 5.31 10.32 7.62 11 10 C10.34 10 9.68 10 9 10 C8.67 9.01 8.34 8.02 8 7 C6.02 7.33 4.04 7.66 2 8 C0.23537317 4.91190305 0 3.76687864 0 0 Z " fill="#707070" transform="translate(102,212)"/>
<path d="M0 0 C0.66 0.33 1.32 0.66 2 1 C1.01 4.63 0.02 8.26 -1 12 C-0.01 12 0.98 12 2 12 C2 12.66 2 13.32 2 14 C-0.97 13.505 -0.97 13.505 -4 13 C-4.33 13.66 -4.66 14.32 -5 15 C-4.29880002 11.84460011 -3.21138129 8.99282435 -2 6 C-1.32204472 4.00379834 -0.65266469 2.00461299 0 0 Z " fill="#646464" transform="translate(273,116)"/>
<path d="M0 0 C2.64 0 5.28 0 8 0 C8.66 1.32 9.32 2.64 10 4 C7.69 4.33 5.38 4.66 3 5 C2.01 3.35 1.02 1.7 0 0 Z " fill="#848484" transform="translate(150,255)"/>
<path d="M0 0 C1.32 0 2.64 0 4 0 C4 1.32 4 2.64 4 4 C4.66 4 5.32 4 6 4 C6.33 5.32 6.66 6.64 7 8 C6.2575 7.484375 5.515 6.96875 4.75 6.4375 C2.16784546 4.75057228 2.16784546 4.75057228 -0.3125 5.3125 C-0.869375 5.539375 -1.42625 5.76625 -2 6 C-2 5.01 -2 4.02 -2 3 C-1.34 3 -0.68 3 0 3 C0 2.01 0 1.02 0 0 Z " fill="#A1A1A1" transform="translate(91,192)"/>
<path d="M0 0 C0.66 0 1.32 0 2 0 C2.66 0.66 3.32 1.32 4 2 C4.66 2 5.32 2 6 2 C6 2.66 6 3.32 6 4 C5.01 4.495 5.01 4.495 4 5 C2.86649466 7.01669827 2.86649466 7.01669827 2 9 C0.68 8.67 -0.64 8.34 -2 8 C-1.34 7.67 -0.68 7.34 0 7 C-0.33 6.01 -0.66 5.02 -1 4 C-0.34 4 0.32 4 1 4 C0.67 2.68 0.34 1.36 0 0 Z " fill="#878787" transform="translate(221,246)"/>
<path d="M0 0 C0.99 1.485 0.99 1.485 2 3 C3.32 2.67 4.64 2.34 6 2 C6.33 2.99 6.66 3.98 7 5 C5.5625 7.1875 5.5625 7.1875 4 9 C2.68 8.67 1.36 8.34 0 8 C0 5.36 0 2.72 0 0 Z " fill="#626262" transform="translate(162,192)"/>
<path d="M0 0 C1.24546405 2.49092811 0.7767578 3.41080733 0 6 C-0.66 6 -1.32 6 -2 6 C-2 6.99 -2 7.98 -2 9 C-2.66 9 -3.32 9 -4 9 C-4.12375 8.360625 -4.2475 7.72125 -4.375 7.0625 C-4.684375 6.0415625 -4.684375 6.0415625 -5 5 C-5.66 4.67 -6.32 4.34 -7 4 C-7 3.34 -7 2.68 -7 2 C-6.01 2.33 -5.02 2.66 -4 3 C-3.67 2.34 -3.34 1.68 -3 1 C-2.01 0.67 -1.02 0.34 0 0 Z " fill="#494949" transform="translate(285,176)"/>
<path d="M0 0 C0.66 0 1.32 0 2 0 C2.33 0.99 2.66 1.98 3 3 C2.34 3 1.68 3 1 3 C1 3.99 1 4.98 1 6 C0.34 6 -0.32 6 -1 6 C-0.67 6.99 -0.34 7.98 0 9 C-2.64 8.34 -5.28 7.68 -8 7 C-8 6.67 -8 6.34 -8 6 C-6.35 6 -4.7 6 -3 6 C-2.690625 5.38125 -2.38125 4.7625 -2.0625 4.125 C-1.375 2.75 -0.6875 1.375 0 0 Z " fill="#5C5C5C" transform="translate(163,253)"/>
<path d="M0 0 C1.32 0 2.64 0 4 0 C4 0.66 4 1.32 4 2 C5.32 2 6.64 2 8 2 C8 1.34 8 0.68 8 0 C8.66 0 9.32 0 10 0 C9 3 9 3 7.1875 4.1875 C5 5 5 5 1 5 C0.67 3.35 0.34 1.7 0 0 Z " fill="#DBDBDB" transform="translate(267,201)"/>
<path d="M0 0 C1.27351308 2.54702616 0.80191925 3.4282945 0.0625 6.125 C-0.13214844 6.84945312 -0.32679688 7.57390625 -0.52734375 8.3203125 C-0.76130859 9.15175781 -0.76130859 9.15175781 -1 10 C-1.99 10 -2.98 10 -4 10 C-4.79953138 6.71303767 -5.09658936 5.28976808 -4 2 C-1.9375 0.8125 -1.9375 0.8125 0 0 Z " fill="#626262" transform="translate(173,185)"/>
<path d="M0 0 C1.0625 1.8125 1.0625 1.8125 2 4 C1.67 4.99 1.34 5.98 1 7 C-0.65 6.67 -2.3 6.34 -4 6 C-4.33 5.01 -4.66 4.02 -5 3 C-4.34 3 -3.68 3 -3 3 C-2.67 2.34 -2.34 1.68 -2 1 C-1.34 0.67 -0.68 0.34 0 0 Z " fill="#232323" transform="translate(191,138)"/>
<path d="M0 0 C1.32 0.33 2.64 0.66 4 1 C4.33 3.31 4.66 5.62 5 8 C2.69 7.34 0.38 6.68 -2 6 C-2 5.34 -2 4.68 -2 4 C-0.68 4 0.64 4 2 4 C2.33 3.34 2.66 2.68 3 2 C2.01 2 1.02 2 0 2 C0 1.34 0 0.68 0 0 Z " fill="#9A9A9A" transform="translate(241,86)"/>
<path d="M0 0 C0.33 0 0.66 0 1 0 C1 1.65 1 3.3 1 5 C0.34 5 -0.32 5 -1 5 C-1 5.99 -1 6.98 -1 8 C-1.66 8 -2.32 8 -3 8 C-3.33 7.34 -3.66 6.68 -4 6 C-4.66 6 -5.32 6 -6 6 C-6 4.68 -6 3.36 -6 2 C-4.7934375 1.7834375 -4.7934375 1.7834375 -3.5625 1.5625 C-1.07896294 1.25864751 -1.07896294 1.25864751 0 0 Z " fill="#6C6C6C" transform="translate(253,85)"/>
<path d="M0 0 C2.05078125 0.03255208 4.1015625 0.06510417 6.15234375 0.09765625 C3.32727512 3.02735705 0.3643831 5.59940342 -2.84765625 8.09765625 C-3.50765625 7.76765625 -4.16765625 7.43765625 -4.84765625 7.09765625 C-3.52765625 5.77765625 -2.20765625 4.45765625 -0.84765625 3.09765625 C-1.50765625 2.43765625 -2.16765625 1.77765625 -2.84765625 1.09765625 C-1.84765625 0.09765625 -1.84765625 0.09765625 0 0 Z " fill="#4B4B4B" transform="translate(141.84765625,66.90234375)"/>
<path d="M0 0 C2 0.66666667 4 1.33333333 6 2 C6.33 1.34 6.66 0.68 7 0 C7.66 1.32 8.32 2.64 9 4 C7.3603125 4.2165625 7.3603125 4.2165625 5.6875 4.4375 C2.06877013 4.88288104 2.06877013 4.88288104 -1 6 C-0.67 4.02 -0.34 2.04 0 0 Z " fill="#595959" transform="translate(164,60)"/>
<path d="M0 0 C0.721875 0.144375 1.44375 0.28875 2.1875 0.4375 C3.5796875 0.7159375 3.5796875 0.7159375 5 1 C6.66666667 1.33333333 8.33333333 1.66666667 10 2 C10 2.99 10 3.98 10 5 C8.68 4.67 7.36 4.34 6 4 C6 4.99 6 5.98 6 7 C5.01 6.67 4.02 6.34 3 6 C3.33 5.01 3.66 4.02 4 3 C2.68 2.34 1.36 1.68 0 1 C0 0.67 0 0.34 0 0 Z " fill="#535353" transform="translate(237,238)"/>
<path d="M0 0 C0.66 0 1.32 0 2 0 C2 0.66 2 1.32 2 2 C3.65 2.33 5.3 2.66 7 3 C5.8125 4.5625 5.8125 4.5625 4 6 C1.3125 5.6875 1.3125 5.6875 -1 5 C-0.67 3.35 -0.34 1.7 0 0 Z " fill="#D1D1D1" transform="translate(268,207)"/>
<path d="M0 0 C0 0.66 0 1.32 0 2 C-1.65 2.66 -3.3 3.32 -5 4 C-5 5.65 -5 7.3 -5 9 C-6.5625 7.875 -6.5625 7.875 -8 6 C-7.8125 2.875 -7.8125 2.875 -7 0 C-4.3333581 -1.33332095 -2.83319697 -0.67102033 0 0 Z " fill="#6E6E6E" transform="translate(96,137)"/>
<path d="M0 0 C0.33 2.31 0.66 4.62 1 7 C0.34 6.67 -0.32 6.34 -1 6 C-1 5.34 -1 4.68 -1 4 C-2.65 4.33 -4.3 4.66 -6 5 C-6.33 4.01 -6.66 3.02 -7 2 C-2.25 0 -2.25 0 0 0 Z " fill="#878787" transform="translate(142,248)"/>
<path d="M0 0 C0.66 1.65 1.32 3.3 2 5 C-2.29 4.34 -6.58 3.68 -11 3 C-4.36912752 -1.97315436 -4.36912752 -1.97315436 0 0 Z " fill="#B3B3B3" transform="translate(172,205)"/>
<path d="M0 0 C-0.66 0.66 -1.32 1.32 -2 2 C-2.99 2 -3.98 2 -5 2 C-4.67 2.99 -4.34 3.98 -4 5 C-5.65 5.33 -7.3 5.66 -9 6 C-9 4.68 -9 3.36 -9 2 C-5.5647952 -0.29013653 -4.014669 -0.17842973 0 0 Z " fill="#C9C9C9" transform="translate(172,64)"/>
<path d="M0 0 C1.5 1.3125 1.5 1.3125 3 3 C3 3.99 3 4.98 3 6 C0.69 6.33 -1.62 6.66 -4 7 C-4 5.68 -4 4.36 -4 3 C-2 1.25 -2 1.25 0 0 Z " fill="#888888" transform="translate(276,180)"/>
<path d="M0 0 C0 0.66 0 1.32 0 2 C-0.99 2 -1.98 2 -3 2 C-3 2.66 -3 3.32 -3 4 C-3.66 4 -4.32 4 -5 4 C-5.66 3.01 -6.32 2.02 -7 1 C-7.66 1 -8.32 1 -9 1 C-9 0.34 -9 -0.32 -9 -1 C-5.79937313 -2.60031344 -3.27728194 -1.03173691 0 0 Z " fill="#8D8D8D" transform="translate(243,82)"/>
<path d="M0 0 C2.97 0.495 2.97 0.495 6 1 C5.67 1.66 5.34 2.32 5 3 C4.34 3 3.68 3 3 3 C3 3.66 3 4.32 3 5 C4.32 5 5.64 5 7 5 C7 5.66 7 6.32 7 7 C5.35 7 3.7 7 2 7 C1.34 4.69 0.68 2.38 0 0 Z " fill="#4B4B4B" transform="translate(228,244)"/>
<path d="M0 0 C-0.375 2.4375 -0.375 2.4375 -1 5 C-1.99 5.495 -1.99 5.495 -3 6 C-3.33 5.01 -3.66 4.02 -4 3 C-4.33 4.32 -4.66 5.64 -5 7 C-6 4 -6 4 -6 1 C-3.92446352 0.4465236 -2.15634036 0 0 0 Z " fill="#747474" transform="translate(254,233)"/>
<path d="M0 0 C-1.875 4.875 -1.875 4.875 -3 6 C-5.33297433 6.04092937 -7.66705225 6.04241723 -10 6 C-9.360625 5.731875 -8.72125 5.46375 -8.0625 5.1875 C-5.66868314 4.11332248 -5.66868314 4.11332248 -5 1 C-2 0 -2 0 0 0 Z " fill="#262626" transform="translate(134,197)"/>
<path d="M0 0 C2.875 -0.125 2.875 -0.125 6 0 C6.66 0.66 7.32 1.32 8 2 C6.68 2 5.36 2 4 2 C4.33 2.99 4.66 3.98 5 5 C2.525 4.01 2.525 4.01 0 3 C0 2.01 0 1.02 0 0 Z M-2 2 C-1.34 2.66 -0.68 3.32 0 4 C-0.66 4 -1.32 4 -2 4 C-2 3.34 -2 2.68 -2 2 Z " fill="#8E8E8E" transform="translate(275,168)"/>
<path d="M0 0 C0.66 0 1.32 0 2 0 C1.814375 0.78375 1.62875 1.5675 1.4375 2.375 C0.74037734 4.97089775 0.74037734 4.97089775 2 7 C-0.96175123 6.38722388 -2.38058783 5.74627478 -5 4 C-4.34 4 -3.68 4 -3 4 C-3 3.01 -3 2.02 -3 1 C-2.01 1 -1.02 1 0 1 C0 0.67 0 0.34 0 0 Z " fill="#464646" transform="translate(175,255)"/>
<path d="M0 0 C0.99 0.33 1.98 0.66 3 1 C3 1.66 3 2.32 3 3 C3.66 3.66 4.32 4.32 5 5 C3.35 5.66 1.7 6.32 0 7 C-1.125 2.25 -1.125 2.25 0 0 Z " fill="#A4A4A4" transform="translate(93,199)"/>
<path d="M0 0 C0.33 0 0.66 0 1 0 C1.25 5.625 1.25 5.625 -1 9 C-1.99 9 -2.98 9 -4 9 C-2.80100302 5.9168649 -1.52299523 2.93720508 0 0 Z " fill="#C1C1C1" transform="translate(286,168)"/>
<path d="M0 0 C1.875 0.25 1.875 0.25 4 1 C5.25 3.0625 5.25 3.0625 6 5 C4.68 6.32 3.36 7.64 2 9 C1.34 8.67 0.68 8.34 0 8 C1.32 6.35 2.64 4.7 4 3 C2.68 3 1.36 3 0 3 C0 2.01 0 1.02 0 0 Z " fill="#3A3A3A" transform="translate(131,72)"/>
<path d="M0 0 C1.98 0 3.96 0 6 0 C6.66 2.31 7.32 4.62 8 7 C7.01 6.67 6.02 6.34 5 6 C5 5.34 5 4.68 5 4 C3.68 4.33 2.36 4.66 1 5 C1 4.34 1 3.68 1 3 C1.66 2.67 2.32 2.34 3 2 C2.01 1.34 1.02 0.68 0 0 Z " fill="#757575" transform="translate(216,70)"/>
<path d="M0 0 C2.25 -0.25 2.25 -0.25 5 0 C7.3125 2 7.3125 2 9 4 C6.69 3.34 4.38 2.68 2 2 C2 2.99 2 3.98 2 5 C1.01 4.67 0.02 4.34 -1 4 C-0.67 2.68 -0.34 1.36 0 0 Z " fill="#5F5F5F" transform="translate(110,227)"/>
<path d="M0 0 C1.98 0.495 1.98 0.495 4 1 C4 2.32 4 3.64 4 5 C2.35 5 0.7 5 -1 5 C-0.67 3.35 -0.34 1.7 0 0 Z " fill="#EEEEEE" transform="translate(183,131)"/>
<path d="M0 0 C0.66 0 1.32 0 2 0 C1.67 2.31 1.34 4.62 1 7 C1.66 7 2.32 7 3 7 C3 7.66 3 8.32 3 9 C1.35 8.67 -0.3 8.34 -2 8 C-1.34 5.36 -0.68 2.72 0 0 Z " fill="#656565" transform="translate(95,120)"/>
<path d="M0 0 C0.66 0 1.32 0 2 0 C2.33 2.97 2.66 5.94 3 9 C2.34 9 1.68 9 1 9 C0.34 8.01 -0.32 7.02 -1 6 C-1.99 6.495 -1.99 6.495 -3 7 C-1.125 2.25 -1.125 2.25 0 0 Z " fill="#595959" transform="translate(97,104)"/>
<path d="M0 0 C0.33 0.66 0.66 1.32 1 2 C1.99 1.67 2.98 1.34 4 1 C4.66 1.33 5.32 1.66 6 2 C6 3.32 6 4.64 6 6 C4.35 5.67 2.7 5.34 1 5 C1 4.34 1 3.68 1 3 C0.01 2.67 -0.98 2.34 -2 2 C-1.34 1.34 -0.68 0.68 0 0 Z " fill="#4F4F4F" transform="translate(119,80)"/>
<path d="M0 0 C1 3 1 3 0 6 C-1.65 5.67 -3.3 5.34 -5 5 C-5.33 4.01 -5.66 3.02 -6 2 C-4.02 1.34 -2.04 0.68 0 0 Z " fill="#585858" transform="translate(175,208)"/>
<path d="M0 0 C0.33 0 0.66 0 1 0 C0.75 3.375 0.75 3.375 0 7 C-2.0625 8.4375 -2.0625 8.4375 -4 9 C-4.33 8.01 -4.66 7.02 -5 6 C-4.34 6 -3.68 6 -3 6 C-2.67 4.68 -2.34 3.36 -2 2 C-1.67 2.66 -1.34 3.32 -1 4 C-0.67 2.68 -0.34 1.36 0 0 Z " fill="#555555" transform="translate(197,150)"/>
<path d="M0 0 C2.56864728 1.28432364 2.946539 2.36634751 4 5 C4 6.32 4 7.64 4 9 C3.34 9 2.68 9 2 9 C2 8.01 2 7.02 2 6 C1.34 6 0.68 6 0 6 C-0.38218767 4.34385343 -0.71395102 2.67542976 -1 1 C-0.67 0.67 -0.34 0.34 0 0 Z " fill="#616161" transform="translate(276,117)"/>
<path d="M0 0 C2.97 0.495 2.97 0.495 6 1 C6.33 1.99 6.66 2.98 7 4 C4.03 4.66 1.06 5.32 -2 6 C-1.67 5.195625 -1.34 4.39125 -1 3.5625 C0.06059041 1.30318875 0.06059041 1.30318875 0 0 Z " fill="#E9E9E9" transform="translate(117,83)"/>
<path d="M0 0 C0.99 0.33 1.98 0.66 3 1 C2.67 1.99 2.34 2.98 2 4 C2.99 4.66 3.98 5.32 5 6 C2.69 6 0.38 6 -2 6 C-2 5.01 -2 4.02 -2 3 C-1.34 3 -0.68 3 0 3 C0 2.01 0 1.02 0 0 Z " fill="#717171" transform="translate(196,257)"/>
<path d="M0 0 C1.65 0.33 3.3 0.66 5 1 C5 1.99 5 2.98 5 4 C5.33 4.66 5.66 5.32 6 6 C3.69 5.34 1.38 4.68 -1 4 C-0.67 2.68 -0.34 1.36 0 0 Z " fill="#656565" transform="translate(144,252)"/>
<path d="M0 0 C0.33 2.31 0.66 4.62 1 7 C0.01 7.66 -0.98 8.32 -2 9 C-2.66 8.34 -3.32 7.68 -4 7 C-3.75 3.9375 -3.75 3.9375 -3 1 C-1 0 -1 0 0 0 Z " fill="#D8D8D8" transform="translate(187,206)"/>
<path d="M0 0 C0.66 0.33 1.32 0.66 2 1 C2 3.64 2 6.28 2 9 C1.01 8.34 0.02 7.68 -1 7 C-0.67 4.69 -0.34 2.38 0 0 Z " fill="#101010" transform="translate(210,204)"/>
<path d="M0 0 C0.99 0.33 1.98 0.66 3 1 C3 2.65 3 4.3 3 6 C1.68 6 0.36 6 -1 6 C-1.042721 4.33388095 -1.04063832 2.66617115 -1 1 C-0.67 0.67 -0.34 0.34 0 0 Z " fill="#161616" transform="translate(209,187)"/>
<path d="M0 0 C0.33 0 0.66 0 1 0 C3 6.625 3 6.625 3 10 C2.01 10.495 2.01 10.495 1 11 C1 10.34 1 9.68 1 9 C0.34 9 -0.32 9 -1 9 C-0.67 6.03 -0.34 3.06 0 0 Z " fill="#414141" transform="translate(208,205)"/>
<path d="M0 0 C4 0 4 0 7 1 C5 3 5 3 2.375 3.125 C1.59125 3.08375 0.8075 3.0425 0 3 C-0.33 3.66 -0.66 4.32 -1 5 C-1.33 4.01 -1.66 3.02 -2 2 C-1.34 2 -0.68 2 0 2 C0 1.34 0 0.68 0 0 Z " fill="#444444" transform="translate(280,161)"/>
<path d="M0 0 C1.39195915 4.17587745 -0.17676781 6.13474776 -2 10 C-2.66 9.67 -3.32 9.34 -4 9 C-3.67 7.02 -3.34 5.04 -3 3 C-2.01 2.67 -1.02 2.34 0 2 C0 1.34 0 0.68 0 0 Z " fill="#787878" transform="translate(280,154)"/>
<path d="M0 0 C1.04449911 3.13349732 0.93423645 3.98968256 0 7 C-0.99 7 -1.98 7 -3 7 C-3.1875 4.625 -3.1875 4.625 -3 2 C-2.01 1.34 -1.02 0.68 0 0 Z " fill="#F4F4F4" transform="translate(164,125)"/>
<path d="M0 0 C1.6875 1.25 1.6875 1.25 3 3 C2.6875 5.1875 2.6875 5.1875 2 7 C0 5 -2 3 -4 1 C-2 0 -2 0 0 0 Z " fill="#515151" transform="translate(101,215)"/>
<path d="M0 0 C0.66 0.33 1.32 0.66 2 1 C1.67 1.99 1.34 2.98 1 4 C0.01 3.67 -0.98 3.34 -2 3 C-1.34 2.01 -0.68 1.02 0 0 Z M-4 2 C-3.34 2.99 -2.68 3.98 -2 5 C-3.98 5.99 -3.98 5.99 -6 7 C-5.34 5.35 -4.68 3.7 -4 2 Z " fill="#868686" transform="translate(277,174)"/>
<path d="M0 0 C2.0625 0.4375 2.0625 0.4375 4 1 C3.6875 2.9375 3.6875 2.9375 3 5 C2.01 5.33 1.02 5.66 0 6 C-0.38218767 4.34385343 -0.71395102 2.67542976 -1 1 C-0.67 0.67 -0.34 0.34 0 0 Z " fill="#D4D4D4" transform="translate(88,174)"/>
<path d="M0 0 C0.66 0 1.32 0 2 0 C3 3 3 3 2.0625 5.1875 C1.5365625 6.0846875 1.5365625 6.0846875 1 7 C0.01 7 -0.98 7 -2 7 C-2 6.01 -2 5.02 -2 4 C-1.34 4 -0.68 4 0 4 C0 2.68 0 1.36 0 0 Z " fill="#575757" transform="translate(83,169)"/>
<path d="M0 0 C1.65 1.32 3.3 2.64 5 4 C4.34 5.32 3.68 6.64 3 8 C2.01 7.67 1.02 7.34 0 7 C0 4.66666667 0 2.33333333 0 0 Z " fill="#363636" transform="translate(282,152)"/>
<path d="M0 0 C0.99 0 1.98 0 3 0 C5.0625 2.375 5.0625 2.375 7 5 C7.66 5.66 8.32 6.32 9 7 C6.75 6.875 6.75 6.875 4 6 C1.6875 2.9375 1.6875 2.9375 0 0 Z " fill="#4F4F4F" transform="translate(166,143)"/>
<path d="M0 0 C0.99 0.33 1.98 0.66 3 1 C4.47666292 4.49029418 4.07164685 8.27436386 4 12 C3.67 12 3.34 12 3 12 C2 8 1 4 0 0 Z " fill="#CBCBCB" transform="translate(201,119)"/>
<path d="M0 0 C2.97 0 5.94 0 9 0 C9 0.99 9 1.98 9 3 C6.03 2.67 3.06 2.34 0 2 C0 1.34 0 0.68 0 0 Z " fill="#7F7F7F" transform="translate(111,93)"/>
<path d="M0 0 C1.32 0.66 2.64 1.32 4 2 C3.67 2.99 3.34 3.98 3 5 C0.36 5 -2.28 5 -5 5 C-4 3 -4 3 -1 2 C-0.67 1.34 -0.34 0.68 0 0 Z " fill="#5F5F5F" transform="translate(128,74)"/>
<path d="M0 0 C0.99 0.33 1.98 0.66 3 1 C3.6875 3.0625 3.6875 3.0625 4 5 C3.01 5.33 2.02 5.66 1 6 C1 6.66 1 7.32 1 8 C0.34 8 -0.32 8 -1 8 C-0.649375 7.236875 -0.29875 6.47375 0.0625 5.6875 C1.32360884 2.95240621 1.32360884 2.95240621 0 0 Z " fill="#4C4C4C" transform="translate(180,61)"/>
<path d="M0 0 C1.65 0 3.3 0 5 0 C5.33 0.99 5.66 1.98 6 3 C3.69 3 1.38 3 -1 3 C-0.67 2.01 -0.34 1.02 0 0 Z " fill="#111111" transform="translate(138,213)"/>
<path d="M0 0 C2.375 0.3125 2.375 0.3125 5 1 C5.66 1.99 6.32 2.98 7 4 C6.34 4.66 5.68 5.32 5 6 C3.31237149 4.3545622 1.6459651 2.68711423 0 1 C0 0.67 0 0.34 0 0 Z " fill="#464646" transform="translate(184,196)"/>
<path d="M0 0 C1.32 0 2.64 0 4 0 C4 1.65 4 3.3 4 5 C3.01 5 2.02 5 1 5 C1 4.01 1 3.02 1 2 C0.34 1.67 -0.32 1.34 -1 1 C-0.67 0.67 -0.34 0.34 0 0 Z " fill="#1B1B1B" transform="translate(226,185)"/>
<path d="M0 0 C0.66 0 1.32 0 2 0 C3.15837626 4.05431692 2.83691257 6.21812119 1 10 C0.67 10 0.34 10 0 10 C0 6.7 0 3.4 0 0 Z " fill="#7F7F7F" transform="translate(163,137)"/>
<path d="M0 0 C0.99 0 1.98 0 3 0 C3 1.65 3 3.3 3 5 C2.01 5 1.02 5 0 5 C-0.33 5.66 -0.66 6.32 -1 7 C-0.67 4.69 -0.34 2.38 0 0 Z " fill="#111111" transform="translate(178,138)"/>
<path d="M0 0 C0.99 0 1.98 0 3 0 C3 0.99 3 1.98 3 3 C2.01 3.66 1.02 4.32 0 5 C-0.33 5.66 -0.66 6.32 -1 7 C-1.66 5.68 -2.32 4.36 -3 3 C-2.01 3 -1.02 3 0 3 C0 2.01 0 1.02 0 0 Z " fill="#757575" transform="translate(276,128)"/>
<path d="M0 0 C1.32 0.33 2.64 0.66 4 1 C4 1.66 4 2.32 4 3 C4.99 3.66 5.98 4.32 7 5 C4.625 5.125 4.625 5.125 2 5 C1.34 4.34 0.68 3.68 0 3 C0 2.01 0 1.02 0 0 Z " fill="#EBEBEB" transform="translate(222,71)"/>
<path d="M0 0 C-0.66 1.65 -1.32 3.3 -2 5 C-2.66 5 -3.32 5 -4 5 C-4.66 3.35 -5.32 1.7 -6 0 C-2.25 -1.125 -2.25 -1.125 0 0 Z " fill="#333333" transform="translate(193,259)"/>
<path d="M0 0 C-1 3 -1 3 -3.0625 4.1875 C-3.701875 4.455625 -4.34125 4.72375 -5 5 C-5.66 3.68 -6.32 2.36 -7 1 C-2.25 0 -2.25 0 0 0 Z " fill="#8C8C8C" transform="translate(229,240)"/>
<path d="M0 0 C2.31 0.33 4.62 0.66 7 1 C7 1.66 7 2.32 7 3 C5.02 3 3.04 3 1 3 C0.67 2.01 0.34 1.02 0 0 Z " fill="#161616" transform="translate(202,213)"/>
<path d="M0 0 C0.99 0 1.98 0 3 0 C3.33 1.65 3.66 3.3 4 5 C2.68 5 1.36 5 0 5 C0 3.35 0 1.7 0 0 Z " fill="#232323" transform="translate(240,196)"/>
<path d="M0 0 C0.99 0 1.98 0 3 0 C2.8125 1.875 2.8125 1.875 2 4 C-0.5625 5.25 -0.5625 5.25 -3 6 C-2 4 -1 2 0 0 Z " fill="#0F0F0F" transform="translate(188,136)"/>
<path d="M0 0 C0.66 0 1.32 0 2 0 C1.38461538 5.53846154 1.38461538 5.53846154 -0.5625 7.875 C-1.036875 8.24625 -1.51125 8.6175 -2 9 C-1.41196203 5.97580475 -0.77321882 2.98241547 0 0 Z " fill="#4F4F4F" transform="translate(166,123)"/>
<path d="M0 0 C0.66 0 1.32 0 2 0 C2 0.66 2 1.32 2 2 C3.32 2.33 4.64 2.66 6 3 C5.34 3.66 4.68 4.32 4 5 C3.01 5 2.02 5 1 5 C0.67 3.35 0.34 1.7 0 0 Z " fill="#F3F3F3" transform="translate(149,66)"/>
<path d="M0 0 C0.66 0 1.32 0 2 0 C2 0.66 2 1.32 2 2 C3.32 2 4.64 2 6 2 C6 2.66 6 3.32 6 4 C4.68 3.67 3.36 3.34 2 3 C1.67 3.66 1.34 4.32 1 5 C0.01 4.34 -0.98 3.68 -2 3 C-1.34 3 -0.68 3 0 3 C0 2.01 0 1.02 0 0 Z " fill="#2F2F2F" transform="translate(190,58)"/>
<path d="M0 0 C1.67542976 0.28604898 3.34385343 0.61781233 5 1 C4.67 2.32 4.34 3.64 4 5 C2.68 4.67 1.36 4.34 0 4 C0.99 4 1.98 4 3 4 C3 3.34 3 2.68 3 2 C1.68 1.67 0.36 1.34 -1 1 C-0.67 0.67 -0.34 0.34 0 0 Z " fill="#444444" transform="translate(198,59)"/>
</svg>
